<svg width="181" height="166" viewBox="0 0 181 166" fill="none" xmlns="http://www.w3.org/2000/svg">
<g clip-path="url(#clip0_2325_3716)">
<path d="M25.1955 3.61322C26.8929 1.74609 29.2991 0.681641 31.8225 0.681641H170.854C175.8 0.681641 179.81 4.69143 179.81 9.63775V134.946C179.81 137.439 178.771 139.82 176.941 141.514L154.558 162.259C152.903 163.794 150.728 164.647 148.47 164.647H9.64361C4.69729 164.647 0.6875 160.638 0.6875 155.691V34.0345C0.6875 31.8066 1.51792 29.6585 3.01663 28.01L25.1955 3.61322Z" stroke="#BEBEBE" stroke-width="1.37786"/>
<path d="M78.3167 26.3377C86.7865 20.8713 97.6039 20.7455 106.197 26.0136L135.961 44.2622C138.487 45.8105 139.758 48.4396 139.758 51.0712L139.758 108.708C139.759 111.264 138.561 113.822 136.152 115.396L96.3692 141.382C95.4051 142.012 94.338 142.41 93.244 142.575C92.6799 142.66 92.1088 142.683 91.5408 142.644C90.2717 142.558 89.0184 142.163 87.8958 141.458L41.4442 112.281C41.042 112.029 40.7376 111.693 40.5306 111.316C40.3126 110.918 40.2034 110.472 40.2031 110.027V52.3898C40.2031 51.5328 40.6071 50.6754 41.4172 50.1524L78.3167 26.3377Z" fill="#E4E4E4"/>
<path d="M78.1136 27.2234C86.5834 21.757 97.4008 21.6313 105.993 26.8993L135.758 45.1479C138.284 46.6963 139.555 49.3253 139.555 51.957L139.555 109.594C139.556 112.15 138.358 114.708 135.949 116.281L96.1661 142.268C95.202 142.898 94.1349 143.295 93.0408 143.46C92.4768 143.546 91.9057 143.569 91.3377 143.53C90.0686 143.444 88.8153 143.049 87.6926 142.344L41.241 113.167C40.8389 112.914 40.5345 112.579 40.3275 112.202C40.1095 111.803 40.0003 111.358 40 110.913V53.2755C40 52.4186 40.404 51.5611 41.214 51.0382L78.1136 27.2234Z" fill="#E4E4E4"/>
<path d="M135.793 44.4262L106.029 26.1776C97.436 20.9096 86.6185 21.0353 78.1488 26.5018L41.2492 50.3165C40.4391 50.8394 40.0352 51.6969 40.0352 52.5539V110.191C40.0354 110.636 40.1447 111.082 40.3626 111.48C40.5696 111.857 40.874 112.193 41.2762 112.445L87.7278 141.622C88.8504 142.327 90.1038 142.722 91.3728 142.808C91.9408 142.847 92.5119 142.824 93.076 142.739C94.17 142.574 95.2371 142.176 96.2012 141.546L135.984 115.56C138.393 113.986 139.591 111.428 139.59 108.872L139.59 51.2353C139.59 48.6036 138.319 45.9746 135.793 44.4262ZM135.793 44.4262V58.0477" stroke="#1B1B1B" stroke-width="0.707557"/>
<path d="M78.3167 26.1893C86.7867 20.7228 97.6039 20.5971 106.197 25.8651L135.961 44.1135C140.94 47.1656 141.042 54.4161 136.152 57.61L96.3691 83.5965C93.798 85.2758 90.4962 85.3054 87.8959 83.6722L41.4446 54.4958C39.8012 53.4635 39.7867 51.0564 41.4171 50.004L78.3167 26.1893Z" fill="#F6F6F6" stroke="#1B1B1B" stroke-width="0.707557"/>
<path d="M92.0786 85.2275C92.0786 106.643 92.0781 120.694 92.0781 142.11" stroke="#1B1B1B" stroke-width="0.707557"/>
</g>
<defs>
<clipPath id="clip0_2325_3716">
<rect width="180.5" height="165.344" fill="white" transform="translate(0 -0.00683594)"/>
</clipPath>
</defs>
</svg>
