<svg width="145" height="148" viewBox="0 0 145 148" fill="none" xmlns="http://www.w3.org/2000/svg">
<path d="M23.2957 0.219519C35.7158 -0.245552 50.6557 0.172577 63.3307 0.174618L129.677 0.154784C140.814 0.22972 145.68 6.54915 144.924 17.1875C144.782 19.158 144.915 21.8764 144.909 23.9102L144.869 47.1532L144.834 127.423C143.901 128.414 142.87 129.431 141.877 130.376C135.954 136.002 130.271 141.969 124.142 147.355C123.736 147.712 122.885 147.812 122.358 147.859C86.4676 148.28 50.453 147.594 14.5484 147.906C8.04009 147.962 1.56648 144.542 0.489 137.593C-0.182979 133.261 0.167506 127.329 0.176195 122.837L0.202253 98.2466C0.208046 73.4372 -0.287236 47.092 0.251506 22.4179C4.99301 18.7539 10.6353 12.3691 15.2494 8.1336C16.6629 6.8349 22.4529 1.30682 23.2957 0.219519Z" fill="#EBEBEA"/>
<path d="M29.8709 34.082C29.8478 31.1635 29.112 25.9664 33.1526 25.5419C36.6197 25.178 40.2258 25.2972 43.7189 25.3077L59.3221 25.3605C68.5763 25.3897 77.8016 25.2996 87.0847 25.42C92.2549 25.4868 92.8197 26.7295 92.8979 31.8986C92.9298 33.9108 92.7821 36.0032 92.7821 38.0192C98.3114 37.9428 103.322 36.6499 103.125 44.0231C103.117 44.3605 103.105 44.6978 103.091 45.0349C106.511 44.969 111.887 44.0654 112.86 48.4732C113.107 51.0584 113.072 54.5156 113.005 57.1617C115.566 58.1715 116.626 58.9599 117.949 61.5063C117.944 63.2112 117.726 72.4589 118.138 73.5317C120.31 73.7439 122.369 74.5254 122.456 77.1053C122.789 87.1036 122.471 97.2249 122.587 107.22C122.694 116.459 120.918 115.634 112.701 115.504C112.272 116.871 111.534 118.894 110.251 119.496C107.473 120.8 101.81 120.325 98.7604 120.326L81.2339 120.328C74.4069 120.327 65.8421 120.502 58.9601 120.129C57.4568 120.048 56.2345 118.215 55.4612 116.973L55.4351 107.387C50.9485 107.267 37.7551 108.516 34.8384 105.545C32.7442 103.415 33.6942 95.2177 33.6942 92.3153C31.9419 92.3334 29.7811 92.4404 28.0925 92.1269C26.6993 91.763 25.2482 91.4047 24.4603 90.0547C23.4379 88.3101 23.5045 56.1759 24.2663 53.6374C23.9882 51.1479 23.9824 47.8151 24.1765 45.3306C25.7869 43.0478 26.1345 42.8428 28.7558 42.2553C30.372 40.7778 29.1816 36.5499 29.8709 34.082Z" fill="#1A1919"/>
<path d="M28.0918 92.1269C31.5241 91.8021 37.1172 92.0121 40.7464 92.0363C40.6248 106.843 41.4184 103.898 55.4836 104.275C57.6154 104.332 59.8573 104.247 61.9833 104.232C61.9572 106.493 61.4967 113.525 63.1679 114.403C66.6031 116.203 78.7625 115.545 82.5279 115.54L112.7 115.504C112.272 116.871 111.533 118.894 110.25 119.496C107.472 120.8 101.81 120.325 98.7597 120.326L81.2332 120.328C74.4062 120.327 65.8414 120.502 58.9594 120.129C57.4561 120.048 56.2338 118.215 55.4605 116.973L55.4344 107.387C50.9478 107.267 37.7544 108.516 34.8377 105.545C32.7435 103.415 33.6935 95.2177 33.6935 92.3153C31.9412 92.3334 29.7804 92.4404 28.0918 92.1269Z" fill="#D5D4D4"/>
<path d="M63.5666 84.5132L120.963 84.6243L121.018 102.228C121.027 104.666 121.406 111.548 120.297 113.367C116.398 115.393 81.2842 113.261 74.7527 114.1C72.7542 114.356 67.8331 113.972 65.6665 113.942C65.1075 113.934 64.3718 113.276 63.9663 112.883C63.0858 110.852 63.4971 88.3938 63.5666 84.5132Z" fill="#FCFCFC"/>
<path d="M70.8105 104.661C73.1016 104.058 94.1531 104.071 95.2596 105.18C94.3501 105.452 92.8903 105.448 91.9345 105.435C85.122 105.341 78.2197 105.71 71.4362 105.239C71.4362 105.239 70.8656 104.713 70.8105 104.661Z" fill="#1A1919"/>
<path d="M70.9531 97.9322C75.6396 97.2657 88.9373 97.9859 94.2436 97.871C94.8345 97.8582 94.8576 98.1221 95.1965 98.5898C93.0357 98.9111 72.7229 98.9577 71.2659 98.5192L70.9531 97.9322Z" fill="#1A1919"/>
<path d="M102.909 90.9145C105.64 90.9084 113.663 90.1555 115.529 91.2799C117.145 92.2532 117.179 103.54 115.563 105.446C112.933 105.484 103.934 106.033 102.431 104.81C101.142 101.989 101.744 96.102 101.802 92.892C101.822 91.726 102.193 91.5324 102.909 90.9145Z" fill="#1A1919"/>
<path d="M103.633 92.1221C107.554 92.0387 111.476 92.069 115.395 92.2125C115.415 94.8947 115.725 101.088 115.143 103.849C115.071 104.197 114.642 104.227 114.219 104.361C110.555 104.381 106.61 104.476 102.975 104.272C102.926 100.787 102.856 97.1886 102.92 93.7001C102.94 92.6388 103.021 92.6586 103.633 92.1221Z" fill="#FCFCFC"/>
<path d="M70.9121 91.2122C73.3973 90.9349 93.6088 90.7848 94.8659 91.4204L94.9817 92.0814C88.2243 92.1678 78.5443 92.3322 71.6131 91.9657C71.1728 91.9426 71.1815 91.6968 70.9121 91.2122Z" fill="#1A1919"/>
<path d="M59.0378 75.0839C59.9936 75.0938 62.166 74.9623 62.8322 75.3629C62.6584 75.6991 62.4991 76.0391 62.3369 76.3814C61.439 78.2898 62.0298 99.0565 62.0356 102.785C58.1457 102.782 44.9523 103.58 42.6988 101.48C42.4295 100.895 42.1427 99.5706 42.2036 98.9967C42.5946 95.2248 41.8444 77.1646 42.5569 75.0078C47.1913 75.3528 54.2181 75.123 59.0378 75.0839Z" fill="#ECECEC"/>
<path d="M50.4797 55.834L111.363 55.8553L111.352 71.2872C111.352 72.0156 111.294 72.6413 111.233 73.367C110.573 73.8455 104.701 73.6131 103.508 73.5601C103.021 72.9868 103.184 72.282 103.152 71.3531C103.21 67.3817 103.676 65.8008 99.5689 64.1414C99.4618 64.163 99.3575 64.1846 99.2503 64.2064C83.2618 64.4135 67.2444 64.2371 51.2501 64.2977C50.8678 64.2992 50.7606 64.1927 50.4797 63.9945L50.3262 62.7818C50.4304 60.4672 50.4797 58.1506 50.4797 55.834Z" fill="#FCFCFC"/>
<path d="M103.152 71.3525L111.352 71.2866C111.352 72.015 111.294 72.6407 111.233 73.3665C110.573 73.8449 104.702 73.6126 103.508 73.5595C103.022 72.9862 103.184 72.2815 103.152 71.3525Z" fill="#D5D4D4"/>
<path d="M42.3347 73.8275C42.0219 71.9614 41.9408 68.1615 43.082 66.6598C43.7627 65.6658 45.8916 65.7411 47.0965 65.7408C64.4956 65.7405 81.9236 65.595 99.3168 65.8151C101.802 65.8463 101.567 69.4704 101.547 71.2143C101.553 72.0844 101.692 73.1111 101.214 73.775C97.7498 74.0844 91.8034 73.9149 88.1278 73.9024C79.0271 73.8712 70.5897 73.7826 61.4775 74.2336C60.5448 74.8658 60.1306 74.869 59.0386 75.0836C54.2189 75.1227 47.1921 75.3525 42.5577 75.0075L42.5027 74.1622L42.3347 73.8275Z" fill="#FCFCFC"/>
<path d="M101.546 71.214C101.552 72.0841 101.691 73.1108 101.213 73.7747C97.7491 74.0841 91.8026 73.9147 88.127 73.9021C79.0264 73.8709 70.589 73.7823 61.4767 74.2334C60.544 74.8655 60.1298 74.8687 59.0379 75.0833C54.2181 75.1224 47.1913 75.3522 42.557 75.0072L42.502 74.1619L42.334 73.8272L61.3869 73.8056C61.9053 72.9921 62.4673 72.1792 63.0089 71.3785C75.5187 70.921 88.8859 71.4598 101.546 71.214Z" fill="#D5D4D4"/>
<path d="M65.7758 75.2094C72.3132 75.1485 118.266 74.7589 119.633 75.6235C120.331 76.0643 120.78 76.8822 120.922 77.6777C121.124 78.8058 121.194 82.4564 120.574 83.381L119.508 83.4862L63.4847 83.4918C63.5282 80.3415 62.3667 76.5979 65.7758 75.2094Z" fill="#FCFCFC"/>
<path d="M68.2975 78.1265C69.0708 77.6506 70.0788 77.8868 70.5654 78.6569C71.0491 79.4269 70.8319 80.4469 70.0759 80.949C69.5748 81.2817 68.9347 81.3161 68.4018 81.0394C67.8688 80.7627 67.5241 80.2177 67.501 79.6138C67.4807 79.01 67.7848 78.4414 68.2975 78.1265Z" fill="#1A1919"/>
<path d="M80.283 78.1286C80.8044 77.786 81.4735 77.7618 82.018 78.0653C82.5654 78.3685 82.8985 78.9502 82.8898 79.5777C82.8782 80.2052 82.5249 80.7758 81.9717 81.0616C81.1723 81.473 80.1932 81.1829 79.7443 80.4014C79.2953 79.6203 79.5328 78.6213 80.283 78.1286Z" fill="#1A1919"/>
<path d="M74.1778 78.1291C74.7049 77.7736 75.3827 77.7413 75.9388 78.0448C76.4978 78.3483 76.8425 78.9376 76.8338 79.5753C76.8281 80.213 76.4689 80.7941 75.9041 81.0842C75.1017 81.498 74.1169 81.2093 73.6593 80.4256C73.1988 79.6421 73.4276 78.6353 74.1778 78.1291Z" fill="#1A1919"/>
<path d="M42.502 74.1617C48.6482 74.1562 55.3767 74.0188 61.4767 74.2331C60.544 74.8653 60.1298 74.8685 59.0378 75.0831C54.2181 75.1222 47.1913 75.3519 42.557 75.007L42.502 74.1617Z" fill="#1A1919"/>
<path d="M47.327 68.4652C48.1931 68.1021 49.1894 68.5156 49.5515 69.3889C49.9107 70.2622 49.5023 71.2646 48.6333 71.6285C47.7673 71.993 46.7709 71.5795 46.4088 70.7056C46.0468 69.8318 46.4581 68.8285 47.327 68.4652Z" fill="#1A1919"/>
<path d="M59.4653 68.4666C60.2821 68.1062 61.2351 68.4372 61.658 69.2273C62.0837 70.0172 61.8347 71.0022 61.0874 71.4917C60.5457 71.8466 59.8506 71.8647 59.2915 71.539C58.7354 71.213 58.4052 70.5986 58.44 69.9496C58.4777 69.3008 58.8715 68.7273 59.4653 68.4666Z" fill="#1A1919"/>
<path d="M53.3518 68.4588C54.1744 68.0853 55.1447 68.4142 55.5763 69.2129C56.0079 70.0118 55.753 71.0099 54.9941 71.5018C54.4496 71.8537 53.7573 71.87 53.1954 71.5438C52.6364 71.2175 52.3062 70.6037 52.3381 69.9535C52.3699 69.3036 52.7638 68.7265 53.3518 68.4588Z" fill="#1A1919"/>
<path d="M50.3262 62.7811L79.8092 62.644C83.8701 62.6621 87.9802 62.6117 92.0294 62.8689C92.8086 62.9184 93.4487 63.4882 94.083 63.9218C95.0273 63.9535 99.0128 63.9591 99.5689 64.1407C99.4618 64.1623 99.3575 64.1839 99.2503 64.2058C83.2618 64.4128 67.2444 64.2364 51.2501 64.297C50.8678 64.2985 50.7606 64.192 50.4797 63.9938L50.3262 62.7811Z" fill="#EBEBEA"/>
<path d="M25.3406 62.5268C30.5166 62.465 35.6926 62.4776 40.8686 62.5642L41.0626 62.6517C41.9374 63.0319 42.3081 63.129 43.2321 63.3494L42.9048 63.5436L43.1278 63.3299L42.7715 63.287L42.3776 63.7252L41.4565 63.7357C42.6151 64.2626 42.9077 64.4589 44.2197 64.3317C42.9888 64.7557 41.1437 65.4963 41.0192 66.9341C40.3646 74.4583 40.7614 83.0903 40.7585 90.6166C38.088 90.6157 35.2002 90.6667 32.5528 90.5731C30.0821 90.562 27.849 91.0376 25.9605 89.5855C24.8424 87.555 25.3319 66.1745 25.3406 62.5268Z" fill="#FCFCFC"/>
<path d="M32.5505 90.5727C32.6519 84.9948 32.5882 79.2553 32.5158 73.6707C32.4318 67.3635 34.8474 63.9978 41.4543 63.7354C42.6128 64.2622 42.9054 64.4585 44.2175 64.3313C42.9865 64.7553 41.1414 65.4959 41.0169 66.9337C40.3623 74.4579 40.7591 83.0899 40.7562 90.6162C38.0857 90.6153 35.1979 90.6663 32.5505 90.5727Z" fill="#D5D4D4"/>
<path d="M40.8672 62.5647C42.9526 62.5244 46.7644 62.3401 48.6471 62.7113C49.0468 63.3928 48.9396 63.0146 48.8267 63.9129C47.8563 64.6375 45.5015 64.3722 44.2184 64.3322C42.9063 64.4594 42.6138 64.2631 41.4552 63.7362L42.3762 63.7257L42.7701 63.2875L43.1264 63.3304L42.9034 63.5441L43.2307 63.3499C42.3067 63.1295 41.936 63.0324 41.0613 62.6522L40.8672 62.5647Z" fill="#EBEBEA"/>
<path d="M112.861 48.4727C113.107 51.0578 113.072 54.5151 113.005 57.1612C115.566 58.1709 116.626 58.9594 117.95 61.5057C117.944 63.2106 117.727 72.4584 118.138 73.5311C116.864 73.66 114.155 73.5877 112.777 73.5923C112.765 65.7161 112.504 56.2223 112.861 48.4727Z" fill="#D5D4D4"/>
<path d="M31.399 36.0734C51.1268 36.0641 71.4512 36.4475 91.1269 36.0737C91.4166 38.2159 91.2862 42.6104 91.2746 44.9415L65.0327 44.9742C60.8241 44.9748 56.465 44.8261 52.2854 45.1637C49.2238 45.4107 48.8241 48.5525 48.8646 50.9128C48.8704 51.2026 48.8791 51.4925 48.8878 51.7823L40.0449 51.7674L31.3613 51.7689L31.399 36.0734Z" fill="#FCFCFC"/>
<path d="M91.1318 36.0742C91.4215 38.2165 91.2911 42.6109 91.2796 44.9421L65.0376 44.9747C60.8291 44.9753 56.4699 44.8266 52.2903 45.1642C49.2287 45.4112 48.829 48.553 48.8695 50.9133C48.8753 51.2032 48.884 51.493 48.8927 51.7828L40.0498 51.768C39.9745 50.0202 40.0556 48.3308 40.1193 46.586C43.2041 41.6688 47.0564 42.5526 52.4206 42.5415C65.2288 42.5144 78.173 42.1464 90.9638 42.7602C90.9493 40.5302 90.8769 38.287 91.1318 36.0742Z" fill="#D5D4D4"/>
<path d="M52.3463 46.2885C65.6903 46.1841 79.0343 46.1838 92.3783 46.2879C95.9902 46.3182 106.264 45.6981 110.003 46.86C111.622 47.3624 111.941 53.0692 111.058 54.1577C110.791 54.4869 110.357 54.3834 109.948 54.4032C90.1104 54.2956 70.2725 54.3067 50.4375 54.4361C50.3275 51.1798 49.5222 48.3348 52.3463 46.2885Z" fill="#FCFCFC"/>
<path d="M55.1425 49.2533C55.6552 48.8952 56.3185 48.8436 56.8775 49.1183C57.4336 49.393 57.8014 49.9508 57.8362 50.5762C57.8681 51.2013 57.5639 51.7959 57.0368 52.1294C56.2489 52.6289 55.2091 52.4038 54.6964 51.6224C54.1809 50.8409 54.3807 49.7892 55.1425 49.2533Z" fill="#1A1919"/>
<path d="M61.1635 49.2414C61.6907 48.8702 62.3858 48.8329 62.9506 49.1454C63.5154 49.4577 63.8572 50.066 63.8312 50.715C63.8051 51.3641 63.4141 51.942 62.8261 52.2065C62.0238 52.566 61.0853 52.2537 60.6538 51.4857C60.2222 50.7174 60.4423 49.7455 61.1635 49.2414Z" fill="#1A1919"/>
<path d="M67.21 49.2366C67.7314 48.8587 68.4207 48.8124 68.9884 49.1165C69.5561 49.4203 69.9038 50.0224 69.8864 50.6697C69.8661 51.3171 69.4838 51.8973 68.8987 52.167C68.1079 52.5318 67.1695 52.232 66.7321 51.4739C66.2948 50.7161 66.5033 49.7478 67.21 49.2366Z" fill="#1A1919"/>
<path d="M24.1769 45.3301C25.7874 43.0474 26.135 42.8424 28.7563 42.2548C30.3725 40.7774 29.182 36.5495 29.8714 34.0815C29.9061 39.8904 29.8048 45.955 29.9438 51.7228C27.3167 51.7965 26.2566 51.6954 24.2667 53.637C23.9887 51.1475 23.9829 47.8147 24.1769 45.3301Z" fill="#D5D4D4"/>
<path d="M27.1807 53.2455C34.1264 53.0516 41.8049 53.1957 48.8172 53.179C48.7593 55.1058 49.3154 60.1204 48.571 61.3497L47.676 61.4486L25.3154 61.3929C25.3096 58.1044 24.2466 55.2682 27.1807 53.2455Z" fill="#FCFCFC"/>
<path d="M36.4253 55.9473C37.2276 55.591 38.166 55.9187 38.5744 56.6981C38.9857 57.4775 38.728 58.4432 37.9836 58.9101C37.4535 59.243 36.7845 59.2503 36.2457 58.9287C35.7099 58.6074 35.397 58.0108 35.4347 57.383C35.4723 56.7553 35.8547 56.2013 36.4253 55.9473Z" fill="#1A1919"/>
<path d="M30.2875 55.9619C31.0956 55.5376 32.092 55.8438 32.5294 56.65C32.9638 57.4562 32.6771 58.4654 31.8835 58.9176C31.3592 59.2177 30.7133 59.2086 30.1948 58.894C29.6793 58.5797 29.3693 58.0088 29.3896 57.4011C29.407 56.7932 29.7517 56.243 30.2875 55.9619Z" fill="#1A1919"/>
<path d="M42.3981 55.9524C43.2033 55.5378 44.1909 55.8475 44.6196 56.6496C45.0512 57.4517 44.7644 58.4521 43.9766 58.9023C43.4524 59.2027 42.8094 59.1933 42.2909 58.8781C41.7753 58.5629 41.4683 57.9914 41.4915 57.3841C41.5146 56.7767 41.8593 56.2291 42.3981 55.9524Z" fill="#1A1919"/>
<path d="M92.9263 39.4424C96.3644 39.3103 101.19 38.1422 101.682 42.6081C101.648 43.484 101.737 44.2429 101.251 44.92C99.3507 45.2157 94.9278 45.0404 92.8105 45.0089C92.7844 43.2 92.6946 41.2219 92.9263 39.4424Z" fill="#FCFCFC"/>
<path d="M92.9263 39.4429C92.9843 40.1946 92.9872 41.7703 93.3956 42.2788C95.0263 42.5395 99.9358 42.6981 101.682 42.6086C101.648 43.4845 101.737 44.2435 101.251 44.9205C99.3507 45.2162 94.9278 45.0409 92.8105 45.0094C92.7844 43.2005 92.6946 41.2224 92.9263 39.4429Z" fill="#D5D4D4"/>
<path d="M33.4558 26.7975L72.7376 26.8069C77.1489 26.7914 81.6124 26.7249 86.0266 26.7025C87.8745 26.6929 89.9194 26.3634 90.7912 28.3694C91.6805 30.4207 91.7442 32.5513 91.1156 34.7049C90.3336 35.2344 89.8122 35.044 88.7145 35.0598C69.7137 34.7148 50.458 35.0974 31.3877 34.8976C31.3211 31.8798 30.4666 28.2872 33.4558 26.7975Z" fill="#FCFCFC"/>
<path d="M36.5654 29.4152C37.1418 29.2059 37.7848 29.3278 38.2453 29.7334C38.7059 30.139 38.9144 30.7644 38.7841 31.3671C38.6567 31.9695 38.2106 32.4544 37.6255 32.6329C36.7508 32.8991 35.8268 32.4162 35.54 31.5438C35.2504 30.6717 35.708 29.7275 36.5654 29.4152Z" fill="#1A1919"/>
<path d="M42.5224 29.4298C43.3624 29.0586 44.3443 29.4254 44.7411 30.2594C45.1379 31.093 44.8077 32.0934 43.9938 32.5211C43.4406 32.8113 42.7773 32.7751 42.2589 32.427C41.7404 32.0788 41.4536 31.4741 41.5087 30.8501C41.5637 30.2258 41.9518 29.6812 42.5224 29.4298Z" fill="#1A1919"/>
<path d="M48.5456 29.4321C49.3682 29.0603 50.3385 29.4076 50.7411 30.2196C51.1466 31.0317 50.8425 32.0199 50.0517 32.4607C49.513 32.7631 48.8497 32.7427 48.3284 32.4071C47.807 32.0718 47.5115 31.4755 47.555 30.8541C47.6013 30.2331 47.9808 29.6869 48.5456 29.4321Z" fill="#1A1919"/>
</svg>
