<svg width="145" height="148" viewBox="0 0 145 148" fill="none" xmlns="http://www.w3.org/2000/svg">
<path d="M23.3636 0.211962C34.7506 -0.226481 48.5393 0.15103 60.1508 0.152196L127.933 0.138496C133.15 0.146658 137.355 0.143743 141.316 4.23112C143.19 6.17292 144.399 8.66336 144.77 11.3424C145.127 13.8066 144.962 20.4987 144.962 23.3308L144.97 46.7143L144.895 127.392C140.507 131.761 136.076 136.087 131.607 140.372C130.024 141.915 124.83 147.562 122.878 147.823C99.904 148.21 75.8976 147.844 52.8746 147.838L26.9017 147.859C22.1584 147.866 17.4154 147.951 12.6741 147.738C9.29443 147.762 5.00645 145.868 2.9367 143.058C-1.10159 137.576 0.195013 125.166 0.209513 118.361L0.238507 84.3575L0.24895 43.5254C0.24895 37.8283 -0.0912249 27.7922 0.38873 22.3883C7.85253 14.9654 15.8267 7.63197 23.3636 0.211962Z" fill="#EBEBEA"/>
<path d="M80.1645 27.6714L80.9823 27.6775C84.7437 30.0035 79.7324 50.3952 84.7553 51.9228C88.0874 51.3558 97.0485 39.6175 100.824 37.811C103.803 36.386 105.058 38.0421 106.946 40.0335C108.425 41.5922 110.162 43.0114 111.035 44.8019C111.752 49.3009 95.6797 60.0477 96.9992 64.6274C99.2554 67.6916 115.266 64.8 119.402 66.2567C121.986 67.1671 121.241 77.6988 120.249 79.3068C116.919 81.7016 99.4758 77.9492 97.1442 81.4092C96.5613 84.9395 109.559 95.2257 111.183 98.9817C112.108 101.121 105.189 107.573 103.634 108.174C100.16 108.207 90.9033 97.3547 87.5567 94.864C86.7186 94.2422 85.692 93.5967 84.6132 93.79C80.6952 94.4929 84.5581 113.629 82.0872 117.211C80.9185 118.179 73.2886 117.733 70.9975 117.801C69.7505 117.666 70.1942 117.855 69.243 117.156C68.0076 114.896 68.8196 99.8664 68.199 96.1026C68.0105 94.9616 67.7785 94.8488 66.9752 94.2725C63.2574 93.7976 53.7441 106.242 49.6649 108.526C49.1673 108.805 48.5087 109.049 47.9382 108.861C46.4993 108.386 40.7021 102.635 40.049 101.225C38.3635 97.5864 52.9689 87.0819 54.0498 82.7371C54.2452 81.952 54.0683 81.6629 53.7102 81.0002C50.7446 78.9818 32.9231 81.7509 30.5625 79.3261C30.0538 77.8 29.4909 67.335 31.0259 66.6517C35.3553 64.7251 50.3177 68.1003 53.5283 65.1146C53.8726 64.3554 54.0538 64.0811 53.738 63.2468C52.2071 59.2052 40.5156 50.1833 39.5795 46.3355C39.371 45.4782 39.7271 44.933 40.2137 44.2605C41.3854 42.6423 45.7479 37.7293 47.6181 37.5378C50.4581 37.2469 60.1297 48.626 62.9546 50.9584C63.822 51.6747 64.9342 52.4589 66.1081 52.3131C70.2841 51.7945 66.7896 31.5349 69.1937 28.2926C70.6466 27.4087 77.7546 27.7577 80.1645 27.6714Z" fill="#1A1919"/>
<path d="M72.9922 57.8673C81.4806 56.5963 89.3687 62.5269 90.5577 71.0696C91.7438 79.6125 85.7727 87.4888 77.264 88.6041C68.8626 89.7049 61.15 83.7958 59.9784 75.3625C58.8067 66.9292 64.6143 59.122 72.9922 57.8673Z" fill="#EBEBEA"/>
</svg>
