<svg preserveAspectRatio="none" width="100%" height="100%" overflow="visible" style="display: block;" viewBox="0 0 94 95.9448" fill="none" xmlns="http://www.w3.org/2000/svg">
<g id="vector">
<path id="Vector" d="M15.1021 0.142309C23.1537 -0.159186 32.8389 0.111877 41.0557 0.113201L84.0665 0.100342C91.2862 0.148922 94.4408 4.24566 93.9507 11.1422C93.8587 12.4197 93.9451 14.1819 93.9413 15.5004L93.915 30.5683L93.8925 82.6053C93.2879 83.2474 92.6194 83.9073 91.9754 84.5199C88.1355 88.1666 84.4514 92.0348 80.4782 95.5266C80.2153 95.758 79.6632 95.8229 79.3215 95.8531C56.0548 96.1266 32.7074 95.6815 9.4314 95.8837C5.21219 95.9204 1.01551 93.7033 0.317007 89.1981C-0.118621 86.3896 0.10859 82.5441 0.114223 79.6321L0.131116 63.6909C0.134871 47.6076 -0.186208 30.5286 0.163045 14.533C3.23685 12.1577 6.89463 8.01859 9.88581 5.27282C10.8021 4.4309 14.5557 0.847182 15.1021 0.142309Z" fill="var(--fill-0, #EBEBEA)"/>
<path id="Vector_2" d="M19.3631 22.094C19.3481 20.202 18.8711 16.8329 21.4905 16.5577C23.7381 16.3218 26.0759 16.3991 28.3404 16.4059L38.4556 16.4401C44.4549 16.459 50.4354 16.4006 56.4534 16.4786C59.8051 16.5219 60.1713 17.3276 60.222 20.6786C60.2426 21.983 60.1469 23.3395 60.1469 24.6464C63.7314 24.5969 66.9798 23.7587 66.8521 28.5386C66.8465 28.7573 66.839 28.976 66.8296 29.1945C69.0472 29.1518 72.5322 28.566 73.1631 31.4235C73.3227 33.0994 73.3002 35.3407 73.257 37.0561C74.9169 37.7106 75.6041 38.2218 76.4623 39.8725C76.4585 40.9778 76.3177 46.9729 76.5843 47.6683C77.9926 47.8059 79.3276 48.3125 79.384 49.985C79.5999 56.4666 79.3934 63.028 79.4685 69.5074C79.5379 75.4969 78.3869 74.9625 73.0598 74.8782C72.7819 75.764 72.3031 77.0754 71.4713 77.4658C69.6706 78.3114 65.9997 78.0031 64.0224 78.0041L52.6604 78.0054C48.2347 78.0047 42.6823 78.1179 38.2209 77.8761C37.2463 77.8234 36.454 76.6354 35.9526 75.8305L35.9357 69.6159C33.0272 69.5379 24.4742 70.3477 22.5834 68.4221C21.2258 67.0407 21.8417 61.7268 21.8417 59.8452C20.7056 59.857 19.3049 59.9263 18.2102 59.7231C17.307 59.4872 16.3663 59.2549 15.8555 58.3797C15.1927 57.2488 15.2359 36.417 15.7297 34.7713C15.5495 33.1574 15.5457 30.9969 15.6715 29.3862C16.7155 27.9063 16.9409 27.7734 18.6402 27.3925C19.6879 26.4348 18.9162 23.6939 19.3631 22.094Z" fill="var(--fill-0, #1A1919)"/>
<path id="Vector_3" d="M18.2111 59.7231C20.4362 59.5125 24.062 59.6486 26.4148 59.6643C26.3359 69.2634 26.8504 67.3538 35.9686 67.5984C37.3505 67.6355 38.8039 67.5805 40.1821 67.5708C40.1652 69.0365 39.8667 73.5952 40.9501 74.1638C43.1771 75.3311 51.0597 74.9044 53.5007 74.9012L73.0608 74.8782C72.7829 75.7639 72.3041 77.0754 71.4723 77.4657C69.6715 78.3114 66.0006 78.0031 64.0234 78.0041L52.6614 78.0054C48.2356 78.0046 42.6832 78.1178 38.2218 77.8761C37.2473 77.8233 36.4549 76.6353 35.9535 75.8305L35.9366 69.6159C33.0281 69.5378 24.4751 70.3476 22.5843 68.422C21.2267 67.0406 21.8426 61.7268 21.8426 59.8452C20.7066 59.8569 19.3058 59.9263 18.2111 59.7231Z" fill="var(--fill-0, #D5D4D4)"/>
<path id="Vector_4" d="M41.2087 54.7873L78.4174 54.8593L78.453 66.2711C78.4587 67.8517 78.7047 72.3135 77.9855 73.4928C75.4581 74.8059 52.6947 73.424 48.4605 73.9676C47.1648 74.134 43.9746 73.8845 42.5701 73.865C42.2077 73.8601 41.7308 73.4333 41.4679 73.1785C40.8971 71.8623 41.1637 57.303 41.2087 54.7873Z" fill="var(--fill-0, #FCFCFC)"/>
<path id="Vector_5" d="M45.9073 67.8494C47.3925 67.4585 61.0397 67.4668 61.757 68.1858C61.1674 68.3624 60.221 68.3597 59.6014 68.3512C55.185 68.2904 50.7104 68.5295 46.3129 68.2238C46.3129 68.2238 45.9429 67.8828 45.9073 67.8494Z" fill="var(--fill-0, #1A1919)"/>
<path id="Vector_6" d="M45.9991 63.4869C49.0372 63.0548 57.6577 63.5217 61.0977 63.4472C61.4808 63.4389 61.4958 63.6099 61.7155 63.9131C60.3147 64.1214 47.1463 64.1517 46.2018 63.8674L45.9991 63.4869Z" fill="var(--fill-0, #1A1919)"/>
<path id="Vector_7" d="M66.7123 58.9383C68.483 58.9344 73.6843 58.4463 74.8935 59.1752C75.9413 59.8062 75.9638 67.1233 74.916 68.359C73.2111 68.3832 67.377 68.7393 66.4025 67.9465C65.5669 66.1177 65.9575 62.3013 65.995 60.2203C66.0082 59.4644 66.2485 59.3389 66.7123 58.9383Z" fill="var(--fill-0, #1A1919)"/>
<path id="Vector_8" d="M67.1848 59.7207C69.7272 59.6666 72.2697 59.6863 74.8102 59.7793C74.8233 61.5181 75.0242 65.533 74.6468 67.3227C74.5999 67.5486 74.322 67.5678 74.0478 67.6548C71.6725 67.6678 69.1151 67.7295 66.7586 67.597C66.7267 65.3377 66.6816 63.0052 66.7229 60.7437C66.736 60.0556 66.7886 60.0685 67.1848 59.7207Z" fill="var(--fill-0, #FCFCFC)"/>
<path id="Vector_9" d="M45.9708 59.1306C47.5819 58.9509 60.6845 58.8535 61.4995 59.2656L61.5746 59.6941C57.1939 59.7501 50.9186 59.8567 46.4252 59.6191C46.1398 59.6041 46.1454 59.4448 45.9708 59.1306Z" fill="var(--fill-0, #1A1919)"/>
<path id="Vector_10" d="M38.2723 48.6752C38.8919 48.6816 40.3002 48.5964 40.7321 48.8561C40.6194 49.074 40.5161 49.2944 40.411 49.5164C39.8289 50.7535 40.2119 64.216 40.2157 66.6333C37.6939 66.6312 29.141 67.1486 27.6801 65.787C27.5055 65.408 27.3196 64.5493 27.3591 64.1773C27.6125 61.7321 27.1262 50.0241 27.5881 48.6259C30.5925 48.8495 35.1478 48.7005 38.2723 48.6752Z" fill="var(--fill-0, #ECECEC)"/>
<path id="Vector_11" d="M32.7245 36.1958L72.1939 36.2096L72.1863 46.2137C72.1863 46.6859 72.1488 47.0915 72.1094 47.562C71.6813 47.8722 67.8751 47.7216 67.1015 47.6872C66.7861 47.3155 66.8912 46.8587 66.8706 46.2564C66.9081 43.6819 67.2104 42.657 64.5479 41.5813C64.4784 41.5953 64.4108 41.6093 64.3413 41.6234C53.9764 41.7576 43.5926 41.6433 33.2239 41.6826C32.9761 41.6835 32.9066 41.6145 32.7245 41.486L32.625 40.6999C32.6926 39.1994 32.7245 37.6976 32.7245 36.1958Z" fill="var(--fill-0, #FCFCFC)"/>
<path id="Vector_12" d="M66.8734 46.2554L72.1892 46.2127C72.1892 46.6848 72.1516 47.0905 72.1122 47.561C71.6841 47.8712 67.878 47.7205 67.1043 47.6861C66.7889 47.3145 66.894 46.8576 66.8734 46.2554Z" fill="var(--fill-0, #D5D4D4)"/>
<path id="Vector_13" d="M27.4422 47.8598C27.2395 46.6501 27.1869 44.1867 27.9267 43.2132C28.3679 42.5688 29.7481 42.6176 30.5292 42.6174C41.8086 42.6172 53.1067 42.5229 64.3824 42.6656C65.9934 42.6859 65.8413 45.0352 65.8282 46.1658C65.8319 46.7298 65.9221 47.3954 65.6122 47.8258C63.3665 48.0264 59.5116 47.9165 57.1288 47.9084C51.229 47.8882 45.7593 47.8307 39.852 48.1231C39.2474 48.5329 38.9789 48.535 38.271 48.6742C35.1465 48.6995 30.5911 48.8484 27.5868 48.6248L27.5511 48.0768L27.4422 47.8598Z" fill="var(--fill-0, #FCFCFC)"/>
<path id="Vector_14" d="M65.8297 46.1662C65.8334 46.7302 65.9235 47.3958 65.6137 47.8262C63.368 48.0268 59.5131 47.9169 57.1303 47.9088C51.2305 47.8886 45.7608 47.8311 39.8535 48.1235C39.2489 48.5333 38.9803 48.5354 38.2725 48.6746C35.1479 48.6999 30.5926 48.8488 27.5883 48.6252L27.5526 48.0772L27.4437 47.8602L39.7953 47.8462C40.1314 47.3189 40.4956 46.7919 40.8468 46.2728C48.9566 45.9762 57.6222 46.3255 65.8297 46.1662Z" fill="var(--fill-0, #D5D4D4)"/>
<path id="Vector_15" d="M42.6412 48.7564C46.8792 48.7169 76.669 48.4644 77.5553 49.0248C78.0078 49.3106 78.2988 49.8408 78.3908 50.3565C78.5223 51.0878 78.5674 53.4544 78.1655 54.0538L77.4745 54.1221L41.1559 54.1256C41.1841 52.0834 40.4311 49.6565 42.6412 48.7564Z" fill="var(--fill-0, #FCFCFC)"/>
<path id="Vector_16" d="M44.2759 50.6475C44.7772 50.339 45.4307 50.4921 45.7461 50.9913C46.0597 51.4906 45.9188 52.1518 45.4288 52.4773C45.1039 52.6929 44.689 52.7152 44.3435 52.5359C43.998 52.3565 43.7745 52.0032 43.7595 51.6117C43.7463 51.2203 43.9435 50.8517 44.2759 50.6475Z" fill="var(--fill-0, #1A1919)"/>
<path id="Vector_17" d="M52.0455 50.6489C52.3834 50.4268 52.8172 50.4111 53.1702 50.6079C53.5251 50.8045 53.741 51.1816 53.7354 51.5884C53.7279 51.9952 53.4988 52.3651 53.1402 52.5503C52.6219 52.817 51.9873 52.629 51.6962 52.1224C51.4052 51.616 51.5591 50.9684 52.0455 50.6489Z" fill="var(--fill-0, #1A1919)"/>
<path id="Vector_18" d="M48.0867 50.6492C48.4285 50.4188 48.8678 50.3978 49.2284 50.5946C49.5907 50.7914 49.8142 51.1734 49.8086 51.5868C49.8048 52.0002 49.572 52.3769 49.2058 52.565C48.6857 52.8332 48.0473 52.6461 47.7506 52.138C47.452 51.6301 47.6004 50.9774 48.0867 50.6492Z" fill="var(--fill-0, #1A1919)"/>
<path id="Vector_19" d="M27.5532 48.0773C31.5377 48.0737 35.8996 47.9847 39.854 48.1236C39.2494 48.5335 38.9809 48.5355 38.273 48.6747C35.1485 48.7 30.5932 48.8489 27.5888 48.6253L27.5532 48.0773Z" fill="var(--fill-0, #1A1919)"/>
<path id="Vector_20" d="M30.6804 44.3844C31.2418 44.1491 31.8878 44.4171 32.1225 44.9832C32.3553 45.5494 32.0906 46.1992 31.5273 46.4351C30.9658 46.6714 30.3199 46.4034 30.0852 45.8369C29.8505 45.2703 30.1171 44.6199 30.6804 44.3844Z" fill="var(--fill-0, #1A1919)"/>
<path id="Vector_21" d="M38.5502 44.3853C39.0797 44.1517 39.6975 44.3662 39.9716 44.8785C40.2476 45.3905 40.0862 46.0291 39.6017 46.3464C39.2506 46.5765 38.7999 46.5882 38.4375 46.3771C38.077 46.1657 37.863 45.7675 37.8855 45.3467C37.9099 44.9261 38.1652 44.5543 38.5502 44.3853Z" fill="var(--fill-0, #1A1919)"/>
<path id="Vector_22" d="M34.5863 44.3801C35.1196 44.138 35.7487 44.3512 36.0284 44.8689C36.3082 45.3869 36.143 46.0339 35.651 46.3528C35.298 46.5809 34.8492 46.5915 34.485 46.38C34.1226 46.1685 33.9085 45.7706 33.9291 45.3491C33.9498 44.9277 34.2052 44.5536 34.5863 44.3801Z" fill="var(--fill-0, #1A1919)"/>
<path id="Vector_23" d="M32.625 40.6992L51.7381 40.6104C54.3707 40.6221 57.0351 40.5894 59.6602 40.7561C60.1653 40.7883 60.5802 41.1576 60.9915 41.4387C61.6036 41.4593 64.1873 41.4629 64.5478 41.5807C64.4784 41.5947 64.4108 41.6086 64.3413 41.6228C53.9764 41.757 43.5926 41.6427 33.2239 41.682C32.9761 41.6829 32.9066 41.6139 32.7245 41.4854L32.625 40.6992Z" fill="var(--fill-0, #EBEBEA)"/>
<path id="Vector_24" d="M16.4279 40.5348C19.7834 40.4947 23.1388 40.5028 26.4943 40.559L26.6201 40.6157C27.1872 40.8622 27.4275 40.9251 28.0265 41.068L27.8143 41.1939L27.9589 41.0554L27.7279 41.0276L27.4726 41.3117L26.8755 41.3185C27.6266 41.66 27.8162 41.7873 28.6668 41.7048C27.8688 41.9797 26.6727 42.4598 26.5919 43.3919C26.1676 48.2697 26.4248 53.8656 26.4229 58.7447C24.6917 58.7441 22.8196 58.7772 21.1034 58.7165C19.5017 58.7093 18.054 59.0176 16.8297 58.0763C16.1049 56.7599 16.4223 42.8995 16.4279 40.5348Z" fill="var(--fill-0, #FCFCFC)"/>
<path id="Vector_25" d="M21.1019 58.7163C21.1676 55.1003 21.1263 51.3795 21.0793 47.7591C21.0249 43.6703 22.5909 41.4884 26.8739 41.3183C27.625 41.6599 27.8147 41.7871 28.6653 41.7047C27.8672 41.9795 26.6711 42.4596 26.5904 43.3917C26.166 48.2695 26.4233 53.8654 26.4214 58.7445C24.6902 58.7439 22.8181 58.777 21.1019 58.7163Z" fill="var(--fill-0, #D5D4D4)"/>
<path id="Vector_26" d="M26.494 40.5598C27.8459 40.5337 30.317 40.4143 31.5375 40.6549C31.7966 41.0966 31.7272 40.8515 31.6539 41.4339C31.0249 41.9036 29.4983 41.7316 28.6665 41.7057C27.8159 41.7881 27.6263 41.6609 26.8752 41.3193L27.4723 41.3125L27.7276 41.0284L27.9586 41.0562L27.814 41.1948L28.0262 41.0689C27.4272 40.926 27.1869 40.863 26.6198 40.6165L26.494 40.5598Z" fill="var(--fill-0, #EBEBEA)"/>
<path id="Vector_27" d="M73.1632 31.4241C73.3228 33.1 73.3003 35.3413 73.2571 37.0567C74.917 37.7112 75.6042 38.2224 76.4623 39.8731C76.4585 40.9784 76.3177 46.9735 76.5844 47.6689C75.7582 47.7524 74.0025 47.7055 73.1087 47.7086C73.1012 42.6026 72.9322 36.448 73.1632 31.4241Z" fill="var(--fill-0, #D5D4D4)"/>
<path id="Vector_28" d="M20.3574 23.3854C33.1465 23.3793 46.3223 23.6279 59.0776 23.3855C59.2654 24.7743 59.1809 27.6231 59.1734 29.1344L42.1613 29.1555C39.433 29.1559 36.6071 29.0595 33.8976 29.2784C31.9128 29.4385 31.6537 31.4752 31.68 33.0054C31.6837 33.1933 31.6894 33.3812 31.695 33.5691L25.9624 33.5594L20.333 33.5604L20.3574 23.3854Z" fill="var(--fill-0, #FCFCFC)"/>
<path id="Vector_29" d="M59.0781 23.3861C59.2659 24.7749 59.1814 27.6237 59.1739 29.1349L42.1618 29.1561C39.4335 29.1565 36.6076 29.0601 33.898 29.279C31.9133 29.4391 31.6542 31.4758 31.6805 33.006C31.6842 33.1939 31.6898 33.3818 31.6955 33.5697L25.9629 33.56C25.914 32.427 25.9666 31.3318 26.0079 30.2007C28.0077 27.013 30.505 27.5859 33.9825 27.5787C42.2857 27.5611 50.6772 27.3226 58.9692 27.7205C58.9598 26.2748 58.9128 24.8206 59.0781 23.3861Z" fill="var(--fill-0, #D5D4D4)"/>
<path id="Vector_30" d="M33.9375 30.0085C42.5881 29.9408 51.2387 29.9406 59.8893 30.0081C62.2308 30.0277 68.891 29.6257 71.3152 30.3789C72.3648 30.7046 72.5713 34.4042 71.9986 35.1098C71.8259 35.3233 71.5442 35.2562 71.2795 35.269C58.4191 35.1993 45.5587 35.2064 32.7001 35.2904C32.6288 33.1793 32.1068 31.335 33.9375 30.0085Z" fill="var(--fill-0, #FCFCFC)"/>
<path id="Vector_31" d="M35.7495 31.9295C36.0818 31.6974 36.5118 31.664 36.8742 31.842C37.2347 32.0201 37.4732 32.3817 37.4957 32.7871C37.5164 33.1924 37.3192 33.5778 36.9775 33.7941C36.4668 34.1179 35.7927 33.9719 35.4603 33.4654C35.1261 32.9588 35.2556 32.277 35.7495 31.9295Z" fill="var(--fill-0, #1A1919)"/>
<path id="Vector_32" d="M39.651 31.9218C39.9928 31.6812 40.4434 31.6569 40.8096 31.8596C41.1757 32.062 41.3973 32.4563 41.3804 32.8771C41.3635 33.2979 41.11 33.6725 40.7289 33.844C40.2087 34.077 39.6004 33.8746 39.3206 33.3767C39.0408 32.8786 39.1835 32.2486 39.651 31.9218Z" fill="var(--fill-0, #1A1919)"/>
<path id="Vector_33" d="M43.5723 31.919C43.9103 31.6741 44.3572 31.644 44.7252 31.8412C45.0932 32.0381 45.3186 32.4285 45.3073 32.8481C45.2941 33.2677 45.0463 33.6439 44.667 33.8188C44.1544 34.0552 43.546 33.8609 43.2625 33.3694C42.9789 32.8782 43.1141 32.2504 43.5723 31.919Z" fill="var(--fill-0, #1A1919)"/>
<path id="Vector_34" d="M15.6729 29.3857C16.7169 27.9058 16.9422 27.7729 18.6416 27.392C19.6893 26.4342 18.9176 23.6934 19.3645 22.0935C19.387 25.8592 19.3213 29.7908 19.4114 33.5299C17.7083 33.5777 17.0211 33.5121 15.7311 34.7708C15.5509 33.1569 15.5471 30.9964 15.6729 29.3857Z" fill="var(--fill-0, #D5D4D4)"/>
<path id="Vector_35" d="M17.6208 34.5176C22.1235 34.3919 27.1013 34.4853 31.6472 34.4745C31.6097 35.7236 31.9702 38.9744 31.4876 39.7713L30.9074 39.8354L16.4116 39.7993C16.4078 37.6675 15.7187 35.8289 17.6208 34.5176Z" fill="var(--fill-0, #FCFCFC)"/>
<path id="Vector_36" d="M23.6146 36.2686C24.1347 36.0376 24.7431 36.25 25.0078 36.7553C25.2744 37.2606 25.1073 37.8866 24.6248 38.1892C24.2812 38.4051 23.8474 38.4098 23.4982 38.2013C23.1508 37.993 22.948 37.6063 22.9724 37.1993C22.9968 36.7923 23.2447 36.4332 23.6146 36.2686Z" fill="var(--fill-0, #1A1919)"/>
<path id="Vector_37" d="M19.6323 36.2789C20.1562 36.0039 20.8021 36.2024 21.0857 36.725C21.3673 37.2477 21.1814 37.9019 20.6669 38.1951C20.3271 38.3896 19.9083 38.3837 19.5722 38.1797C19.238 37.976 19.0371 37.6059 19.0502 37.2119C19.0615 36.8178 19.2849 36.4611 19.6323 36.2789Z" fill="var(--fill-0, #1A1919)"/>
<path id="Vector_38" d="M27.485 36.2726C28.007 36.0038 28.6473 36.2046 28.9252 36.7246C29.205 37.2446 29.0191 37.8931 28.5083 38.185C28.1685 38.3797 27.7516 38.3736 27.4155 38.1693C27.0813 37.9649 26.8823 37.5944 26.8973 37.2007C26.9123 36.807 27.1357 36.452 27.485 36.2726Z" fill="var(--fill-0, #1A1919)"/>
<path id="Vector_39" d="M60.2415 25.5695C62.4703 25.4839 65.5986 24.7266 65.9178 27.6217C65.8952 28.1896 65.9534 28.6816 65.638 29.1205C64.4062 29.3122 61.539 29.1986 60.1664 29.1782C60.1495 28.0055 60.0912 26.7231 60.2415 25.5695Z" fill="var(--fill-0, #FCFCFC)"/>
<path id="Vector_40" d="M60.2415 25.5698C60.279 26.0571 60.2809 27.0786 60.5457 27.4083C61.6028 27.5773 64.7855 27.6801 65.9178 27.6221C65.8952 28.1899 65.9534 28.6819 65.638 29.1209C64.4062 29.3125 61.539 29.1989 60.1664 29.1785C60.1495 28.0058 60.0912 26.7235 60.2415 25.5698Z" fill="var(--fill-0, #D5D4D4)"/>
<path id="Vector_41" d="M21.6876 17.3723L47.1531 17.3783C50.0128 17.3683 52.9064 17.3252 55.768 17.3107C56.966 17.3044 58.2916 17.0908 58.8568 18.3913C59.4333 19.7211 59.4746 21.1023 59.0671 22.4985C58.5601 22.8417 58.2222 22.7183 57.5105 22.7285C45.1927 22.5049 32.7098 22.7529 20.3469 22.6234C20.3038 20.667 19.7498 18.338 21.6876 17.3723Z" fill="var(--fill-0, #FCFCFC)"/>
<path id="Vector_42" d="M23.7038 19.0695C24.0775 18.9338 24.4943 19.0128 24.7929 19.2757C25.0914 19.5387 25.2266 19.9441 25.1422 20.3348C25.0595 20.7254 24.7704 21.0397 24.3911 21.1554C23.824 21.328 23.225 21.015 23.0391 20.4494C22.8513 19.884 23.148 19.2719 23.7038 19.0695Z" fill="var(--fill-0, #1A1919)"/>
<path id="Vector_43" d="M27.5669 19.0794C28.1114 18.8388 28.7479 19.0766 29.0052 19.6172C29.2624 20.1576 29.0484 20.8061 28.5207 21.0834C28.1621 21.2715 27.7321 21.2481 27.396 21.0224C27.0599 20.7967 26.874 20.4046 26.9097 20.0001C26.9453 19.5954 27.1969 19.2423 27.5669 19.0794Z" fill="var(--fill-0, #1A1919)"/>
<path id="Vector_44" d="M31.471 19.0799C32.0043 18.8389 32.6333 19.0641 32.8943 19.5905C33.1572 20.1169 32.96 20.7575 32.4474 21.0433C32.0982 21.2394 31.6682 21.2261 31.3302 21.0086C30.9922 20.7912 30.8007 20.4046 30.8288 20.0018C30.8589 19.5992 31.1049 19.2451 31.471 19.0799Z" fill="var(--fill-0, #1A1919)"/>
</g>
</svg>
