<svg preserveAspectRatio="none" width="100%" height="100%" overflow="visible" style="display: block;" viewBox="0 0 55 55" fill="none" xmlns="http://www.w3.org/2000/svg">
<g id="Component 3">
<path d="M0 0H55V55H0V0Z" fill="var(--fill-0, #004D43)"/>
<path id="Vector" d="M22.2 20.4143C22.2 19.9093 22.6093 19.5 23.1143 19.5H24.9428C25.4478 19.5 25.8571 19.9093 25.8571 20.4143V21.7857C25.8571 22.2907 26.2665 22.7 26.7715 22.7H28.1429C28.6478 22.7 29.0572 23.1093 29.0572 23.6143V24.9857C29.0572 25.4907 29.4665 25.9 29.9715 25.9H31.3429C31.8478 25.9 32.2572 26.3093 32.2572 26.8143V28.6429C32.2572 29.1478 31.8478 29.5571 31.3429 29.5571H29.5143C29.0094 29.5571 28.6 29.9665 28.6 30.4714V31.3857C28.6 31.8907 28.1907 32.3 27.6857 32.3H26.3143C25.8093 32.3 25.4 32.7093 25.4 33.2143V34.5857C25.4 35.0907 24.9906 35.5 24.4857 35.5H22.6571C22.1522 35.5 21.7428 35.0907 21.7428 34.5857V32.7571C21.7428 32.2522 22.1522 31.8429 22.6571 31.8429H24.0285C24.5335 31.8429 24.9428 31.4335 24.9428 30.9286V29.5571C24.9428 29.0522 25.3522 28.6429 25.8571 28.6429H27.6857C28.1907 28.6429 28.6 28.2335 28.6 27.7286V27.2714C28.6 26.7665 28.1907 26.3571 27.6857 26.3571H26.3143C25.8093 26.3571 25.4 25.9478 25.4 25.4429V24.0714C25.4 23.5665 24.9906 23.1571 24.4857 23.1571H23.1143C22.6093 23.1571 22.2 22.7478 22.2 22.2429V20.4143Z" fill="var(--fill-0, white)"/>
</g>
</svg>
