<svg preserveAspectRatio="none" width="100%" height="100%" overflow="visible" style="display: block;" viewBox="0 0 180.5 165.344" fill="none" xmlns="http://www.w3.org/2000/svg">
<g id="Component 2" clip-path="url(#clip0_0_30)">
<path id="Vector" d="M25.1965 3.62006C26.8939 1.75293 29.3001 0.688477 31.8235 0.688477H170.855C175.801 0.688477 179.811 4.69826 179.811 9.64458V134.952C179.811 137.446 178.772 139.826 176.942 141.521L154.559 162.266C152.904 163.801 150.729 164.654 148.471 164.654H9.64458C4.69826 164.654 0.688477 160.645 0.688477 155.698V34.0413C0.688477 31.8134 1.5189 29.6653 3.0176 28.0169L25.1965 3.62006Z" stroke="var(--stroke-0, #BEBEBE)" stroke-width="1.37786"/>
<g id="Group 1707480402">
<path id="Vector_2" d="M78.3158 26.3445C86.7855 20.8781 97.603 20.7524 106.196 26.0204L135.96 44.269C138.486 45.8174 139.757 48.4464 139.757 51.0781L139.757 108.715C139.758 111.271 138.56 113.829 136.151 115.402L96.3682 141.389C95.4041 142.019 94.337 142.416 93.243 142.581C92.6789 142.667 92.1078 142.69 91.5398 142.651C90.2707 142.565 89.0174 142.17 87.8948 141.465L41.4432 112.288C41.041 112.035 40.7366 111.7 40.5296 111.323C40.3117 110.925 40.2024 110.479 40.2021 110.034V52.3966C40.2021 51.5397 40.6061 50.6822 41.4162 50.1593L78.3158 26.3445Z" fill="var(--fill-0, #E4E4E4)"/>
<path id="Vector_3" d="M78.1136 27.2302C86.5834 21.7638 97.4008 21.638 105.993 26.9061L135.758 45.1547C138.284 46.703 139.555 49.3321 139.555 51.9637L139.555 109.601C139.556 112.156 138.358 114.715 135.949 116.288L96.1661 142.275C95.202 142.904 94.1349 143.302 93.0408 143.467C92.4768 143.552 91.9057 143.576 91.3377 143.537C90.0686 143.451 88.8153 143.056 87.6926 142.35L41.241 113.174C40.8389 112.921 40.5345 112.586 40.3275 112.208C40.1095 111.81 40.0003 111.365 40 110.919V53.2823C40 52.4254 40.404 51.5679 41.214 51.045L78.1136 27.2302Z" fill="var(--fill-0, #E4E4E4)"/>
<path id="Vector_4" d="M135.794 44.4331L106.03 26.1845C97.437 20.9164 86.6195 21.0422 78.1497 26.5086L41.2502 50.3233C40.4401 50.8463 40.0361 51.7037 40.0361 52.5607V110.198C40.0364 110.643 40.1456 111.089 40.3636 111.487C40.5706 111.864 40.875 112.199 41.2772 112.452L87.7288 141.629C88.8514 142.334 90.1047 142.729 91.3738 142.815C91.9418 142.854 92.5129 142.831 93.077 142.746C94.171 142.58 95.2381 142.183 96.2022 141.553L135.985 115.566C138.394 113.993 139.592 111.435 139.591 108.879L139.591 51.2421C139.591 48.6105 138.32 45.9814 135.794 44.4331ZM135.794 44.4331V58.0546" stroke="var(--stroke-0, #1B1B1B)" stroke-width="0.707557"/>
<path id="Vector_5" d="M78.3157 26.1961C86.7857 20.7297 97.6029 20.6039 106.196 25.872L135.96 44.1203C140.939 47.1725 141.041 54.423 136.151 57.6168L96.3682 83.6033C93.797 85.2827 90.4952 85.3123 87.895 83.679L41.4436 54.5026C39.8002 53.4704 39.7858 51.0632 41.4161 50.0108L78.3157 26.1961Z" fill="var(--fill-0, #F6F6F6)" stroke="var(--stroke-0, #1B1B1B)" stroke-width="0.707557"/>
<path id="Vector_6" d="M92.0786 85.2344C92.0786 106.65 92.0781 120.701 92.0781 142.117" stroke="var(--stroke-0, #1B1B1B)" stroke-width="0.707557"/>
</g>
</g>
<defs>
<clipPath id="clip0_0_30">
<rect width="180.5" height="165.344" fill="white"/>
</clipPath>
</defs>
</svg>
