<svg preserveAspectRatio="none" width="100%" height="100%" overflow="visible" style="display: block;" viewBox="0 0 29.1354 35.0261" fill="none" xmlns="http://www.w3.org/2000/svg">
<g id="Group 1707480403">
<path id="Vector" d="M19.1989 33.4551L27.7521 27.8733C28.4398 27.4244 28.7817 26.6946 28.7815 25.9656L28.7816 9.55236C28.7815 8.80154 28.4187 8.0515 27.6975 7.60974L16.3919 0.684833V17.098L17.5941 17.8344C16.0488 18.3792 14.3663 18.4006 12.8086 17.8962L14.0034 17.1258L14.0036 0.712582L0.700466 9.29017C0.469133 9.43934 0.353778 9.68397 0.353778 9.92844V26.3414C0.353856 26.589 0.472165 26.8367 0.70824 26.9848L11.1338 33.527C13.6086 35.0801 16.7518 35.0521 19.1989 33.4551Z" fill="var(--fill-0, #E4E4E4)"/>
<path id="Vector_2" d="M14.0036 0.712326C14.7292 0.244452 15.6558 0.233726 16.3919 0.684577M14.0036 0.712326L16.3919 0.684577M14.0036 0.712326L14.0034 17.1255L12.8086 17.896C14.3663 18.4004 16.0488 18.379 17.5941 17.8342L16.3919 17.0978V0.684577M14.0036 0.712326L0.700466 9.28992C0.469133 9.43909 0.353778 9.68371 0.353778 9.92818V26.3412C0.353856 26.5887 0.472165 26.8364 0.70824 26.9846L11.1338 33.5268C13.6086 35.0798 16.7518 35.0518 19.1989 33.4548L27.7521 27.873C28.4398 27.4241 28.7817 26.6943 28.7815 25.9653M16.3919 0.684577L27.6975 7.60949M28.7815 25.9653V25.9488M28.7815 25.9653L28.7816 9.55211C28.7815 8.80129 28.4187 8.05124 27.6975 7.60949M27.6975 7.60949V11.4955" stroke="var(--stroke-0, #1B1B1B)" stroke-width="0.707557"/>
<path id="Vector_3" d="M14.0034 0.712326C14.729 0.244452 15.6556 0.233726 16.3917 0.684577L27.6974 7.60949C29.1189 8.48017 29.1482 10.5486 27.7519 11.4598L19.1987 17.0416C16.7515 18.6385 13.6087 18.6666 11.1338 17.1136L0.708235 10.5713C0.23904 10.2769 0.234842 9.59012 0.700462 9.28992L14.0034 0.712326Z" fill="var(--fill-0, #F6F6F6)" stroke="var(--stroke-0, #1B1B1B)" stroke-width="0.707557"/>
</g>
</svg>
