<svg preserveAspectRatio="none" width="100%" height="100%" overflow="visible" style="display: block;" viewBox="0 0 289.19 221.384" fill="none" xmlns="http://www.w3.org/2000/svg">
<g id="Group 1707480400">
<path id="Vector" d="M154.498 3.05411C147.765 -0.77477 137.861 -0.505932 130.872 3.69576L5.6769 78.9485M154.498 3.05411V55.4489L252.023 110.914M154.498 3.05411L284.003 76.706C287.233 78.5431 288.836 81.2289 288.836 83.9797V136.375C288.837 139.278 287.052 142.254 283.513 144.381L164.335 216.017C157.987 219.833 150.036 221.486 142.51 220.922C137.605 220.555 132.88 219.246 128.895 216.979L5.18692 146.624C3.5719 145.705 2.36371 144.574 1.5592 143.33C0.754734 142.085 0.353992 140.725 0.35379 139.35V86.9549C0.353387 84.0518 2.1376 81.0758 5.6769 78.9485M5.6769 78.9485V94.5071M130.873 56.0909C131.426 55.7584 131.997 55.4505 132.584 55.1672" stroke="var(--stroke-0, #1B1B1B)" stroke-width="0.707557"/>
<path id="Vector_2" d="M130.872 3.69576C137.862 -0.505932 147.766 -0.77477 154.499 3.05411L284.003 76.706C290.642 80.4817 290.406 87.8432 283.513 91.9861L164.335 163.622C153.85 169.924 138.994 170.328 128.895 164.584L5.18693 94.2286C-1.45206 90.4529 -1.21604 83.0918 5.67691 78.9485L130.872 3.69576Z" fill="var(--fill-0, #F6F6F6)" stroke="var(--stroke-0, #1B1B1B)" stroke-width="0.707557"/>
</g>
</svg>
