<svg preserveAspectRatio="none" width="100%" height="100%" overflow="visible" style="display: block;" viewBox="0 0 29 44" fill="none" xmlns="http://www.w3.org/2000/svg">
<path id="Vector" d="M1.26086 2.5143C1.26086 1.12568 2.38988 0 3.7826 0H8.82606C10.2188 0 11.3478 1.12568 11.3478 2.5143V6.2857C11.3478 7.67431 12.4768 8.8 13.8697 8.8H17.6522C19.0448 8.8 20.1739 9.92569 20.1739 11.3143V15.0857C20.1739 16.4743 21.3029 17.6 22.6957 17.6H26.4782C27.8708 17.6 29 18.7257 29 20.1143V25.143C29 26.5315 27.8708 27.657 26.4782 27.657H21.4347C20.0421 27.657 18.9129 28.7829 18.9129 30.1714V32.6857C18.9129 34.0744 17.784 35.2 16.3911 35.2H12.6087C11.2159 35.2 10.0869 36.3256 10.0869 37.7143V41.4857C10.0869 42.8744 8.9579 44 7.5652 44H2.52174C1.12902 44 0 42.8744 0 41.4857V36.457C0 35.0686 1.12902 33.943 2.52174 33.943H6.30432C7.69704 33.943 8.82606 32.8171 8.82606 31.4287V27.657C8.82606 26.2686 9.95508 25.143 11.3478 25.143H16.3911C17.784 25.143 18.9129 24.0171 18.9129 22.6286V21.3714C18.9129 19.9828 17.784 18.8571 16.3911 18.8571H12.6087C11.2159 18.8571 10.0869 17.7315 10.0869 16.3429V12.5714C10.0869 11.1828 8.9579 10.0571 7.5652 10.0571H3.7826C2.38988 10.0571 1.26086 8.93145 1.26086 7.54286V2.5143Z" fill="var(--fill-0, white)"/>
</svg>
