<svg preserveAspectRatio="none" width="100%" height="100%" overflow="visible" style="display: block;" viewBox="0 0 94 95.9448" fill="none" xmlns="http://www.w3.org/2000/svg">
<g id="vector">
<path id="Vector" d="M15.1461 0.13741C22.528 -0.146822 31.4669 0.0979091 38.9943 0.098665L82.9358 0.0897833C86.3179 0.0950749 89.0439 0.0931854 91.612 2.74293C92.8265 4.00175 93.6105 5.61625 93.8511 7.35301C94.0824 8.95049 93.9752 13.2888 93.9752 15.1248L93.9809 30.2838L93.932 82.5853C91.0875 85.4173 88.2148 88.2222 85.3177 91C84.2912 91.9998 80.9241 95.6608 79.6589 95.8299C64.7654 96.0807 49.2026 95.8435 34.2773 95.8395L17.4397 95.8537C14.3647 95.8581 11.29 95.9129 8.21633 95.7753C6.02536 95.7908 3.24556 94.5624 1.90379 92.7411C-0.714135 89.1875 0.126422 81.142 0.135823 76.7304L0.154618 54.6869L0.161388 28.2165C0.161388 24.5232 -0.0591389 18.017 0.252004 14.5138C5.09061 9.7017 10.2601 4.94762 15.1461 0.13741Z" fill="var(--fill-0, #EBEBEA)"/>
<path id="Vector_2" d="M51.9689 17.9392L52.4991 17.9432C54.9375 19.4511 51.6888 32.6705 54.945 33.6608C57.1052 33.2932 62.9144 25.6836 65.3622 24.5125C67.293 23.5887 68.107 24.6623 69.3309 25.9533C70.2897 26.9638 71.4159 27.8838 71.9817 29.0445C72.4461 31.9611 62.0271 38.928 62.8825 41.8969C64.3451 43.8833 74.7247 42.0088 77.4056 42.9532C79.0807 43.5434 78.5975 50.3708 77.9546 51.4132C75.7963 52.9657 64.488 50.5331 62.9765 52.7762C62.5986 55.0648 71.0248 61.7331 72.0776 64.168C72.6774 65.5547 68.1916 69.7375 67.1839 70.1272C64.9317 70.1487 58.9307 63.1132 56.7611 61.4986C56.2178 61.0955 55.5523 60.677 54.8529 60.8023C52.313 61.258 54.8172 73.6636 53.2154 75.9855C52.4578 76.6133 47.5114 76.3242 46.0262 76.3678C45.2178 76.2805 45.5055 76.4032 44.8888 75.9502C44.0879 74.485 44.6143 64.7415 44.212 62.3015C44.0898 61.5619 43.9394 61.4887 43.4186 61.1151C41.0085 60.8073 34.8412 68.875 32.1968 70.3553C31.8742 70.536 31.4472 70.6941 31.0774 70.5722C30.1446 70.2648 26.3864 66.5363 25.963 65.6222C24.8704 63.2635 34.3387 56.4536 35.0394 53.637C35.1661 53.1281 35.0514 52.9406 34.8192 52.511C32.8967 51.2025 21.3435 52.9977 19.8131 51.4257C19.4834 50.4364 19.1185 43.6522 20.1136 43.2092C22.9202 41.9602 32.62 44.1483 34.7014 42.2127C34.9245 41.7206 35.042 41.5428 34.8373 41.0019C33.8448 38.3818 26.2655 32.5331 25.6587 30.0387C25.5235 29.4829 25.7544 29.1295 26.0698 28.6936C26.8294 27.6445 29.6575 24.4596 30.8699 24.3354C32.711 24.1468 38.9809 31.5236 40.8122 33.0357C41.3745 33.5 42.0955 34.0084 42.8565 33.9139C45.5637 33.5777 43.2983 20.4438 44.8568 18.3419C45.7987 17.7689 50.4067 17.9952 51.9689 17.9392Z" fill="var(--fill-0, #1A1919)"/>
<path id="Vector_3" d="M47.3181 37.5145C52.821 36.6905 57.9346 40.5352 58.7054 46.0732C59.4743 51.6113 55.6034 56.7173 50.0874 57.4404C44.641 58.154 39.6411 54.3233 38.8816 48.8561C38.122 43.389 41.887 38.3278 47.3181 37.5145Z" fill="var(--fill-0, #EBEBEA)"/>
</g>
</svg>
