<svg preserveAspectRatio="none" width="100%" height="100%" overflow="visible" style="display: block;" viewBox="0 0 30.2461 36.4647" fill="none" xmlns="http://www.w3.org/2000/svg">
<g id="Group 1707480405">
<path id="Vector" d="M11.6623 1.59676C14.1753 -0.0251638 17.3849 -0.0624753 19.9344 1.50058L28.7656 6.91504C29.515 7.37444 29.8922 8.15449 29.8923 8.93531L29.8923 26.0365C29.8924 26.7948 29.5372 27.5538 28.8224 28.0207L17.0185 35.731C16.7325 35.9179 16.4159 36.0359 16.0913 36.0848C15.9239 36.1101 15.7544 36.117 15.5859 36.1055C15.2094 36.0799 14.8375 35.9627 14.5044 35.7535L0.721999 27.0967C0.602679 27.0217 0.512354 26.9222 0.450945 26.8102C0.386271 26.6921 0.353856 26.5599 0.353778 26.4278V9.32654C0.353778 9.07228 0.473642 8.81786 0.713992 8.6627L11.6623 1.59676Z" fill="var(--fill-0, #E4E4E4)"/>
<path id="Vector_2" d="M28.7656 6.91504L19.9344 1.50058C17.3849 -0.0624753 14.1753 -0.0251638 11.6623 1.59676L0.713992 8.6627C0.473642 8.81786 0.353778 9.07228 0.353778 9.32654V26.4278C0.353856 26.5599 0.386271 26.6921 0.450945 26.8102C0.512354 26.9222 0.602679 27.0217 0.721999 27.0967L14.5044 35.7535C14.8375 35.9627 15.2094 36.0799 15.5859 36.1055C15.7544 36.117 15.9239 36.1101 16.0913 36.0848C16.4159 36.0359 16.7325 35.9179 17.0185 35.731L28.8224 28.0207C29.5372 27.5538 29.8924 26.7948 29.8923 26.0365L29.8923 8.93531C29.8922 8.15449 29.515 7.37444 28.7656 6.91504ZM28.7656 6.91504V10.9566" stroke="var(--stroke-0, #1B1B1B)" stroke-width="0.707557"/>
<path id="Vector_3" d="M11.6623 1.59676C14.1754 -0.0251638 17.3849 -0.0624753 19.9344 1.50058L28.7657 6.91496C30.2428 7.82055 30.2732 9.9718 28.8224 10.9194L17.0185 18.6298C16.2556 19.128 15.276 19.1368 14.5045 18.6522L0.722131 9.99544C0.234512 9.68917 0.230237 8.97496 0.713969 8.6627L11.6623 1.59676Z" fill="var(--fill-0, #F6F6F6)" stroke="var(--stroke-0, #1B1B1B)" stroke-width="0.707557"/>
<path id="Vector_4" d="M15.7465 19.1135C15.7465 25.4677 15.7464 29.6365 15.7464 35.9907" stroke="var(--stroke-0, #1B1B1B)" stroke-width="0.707557"/>
</g>
</svg>
