<svg width="137" height="29" viewBox="0 0 137 29" fill="none" xmlns="http://www.w3.org/2000/svg">
<path fill-rule="evenodd" clip-rule="evenodd" d="M23.0655 0C26.3431 0 29 2.65663 29 5.93374V23.0657C29 26.3428 26.3431 29 23.0655 29H5.93445C2.65694 29 0 26.3428 0 23.0657V5.93374C5.29269e-08 2.65663 2.65694 0 5.93445 0H23.0655ZM18.679 9.00434C16.918 5.73775 12.846 4.51874 9.58379 6.282C8.61089 6.80794 8.24784 8.0243 8.77302 8.99854L11.9257 14.8459C12.2031 15.3606 12.0114 16.0035 11.4974 16.2813L11.3879 16.3404C10.9344 16.5854 10.3682 16.416 10.1233 15.962C9.66162 15.1056 8.59385 14.7858 7.73855 15.2481C5.05053 16.7011 4.04775 20.0611 5.49864 22.7528L5.94662 23.5831C6.487 24.5855 7.73662 24.9598 8.73767 24.4187L11.1729 23.1022C12.37 22.4551 12.817 20.9586 12.1708 19.7598C11.9169 19.2889 12.0923 18.701 12.5626 18.4467L12.6414 18.4039C13.1554 18.126 13.7972 18.318 14.0746 18.8327L16.1175 22.6218C16.7638 23.8204 18.2579 24.2677 19.455 23.6208L23.0383 21.6837C24.0973 21.1111 24.4927 19.7872 23.9209 18.7266L18.679 9.00434Z" fill="#E6FF2B"/>
<path d="M37.2813 12.357C36.5117 12.357 35.9391 12.1778 35.5635 11.8193C35.1878 11.4609 35 10.9144 35 10.18C35 9.44564 35.1855 8.89921 35.5566 8.54076C35.9322 8.1823 36.5071 8.00307 37.2813 8.00307H40.1879C40.1604 7.54408 40.0344 7.23152 39.8099 7.06541C39.5855 6.89492 39.2007 6.80968 38.6556 6.80968H37.8585C37.4004 6.80968 37.0591 6.84028 36.8346 6.90148C36.6102 6.95831 36.4521 7.06322 36.3605 7.21622C36.2781 7.39982 36.1933 7.52659 36.1063 7.59653C36.0192 7.66647 35.8887 7.70145 35.7146 7.70145C35.5222 7.70145 35.3711 7.65117 35.2611 7.55063C35.1512 7.44572 35.1191 7.30802 35.1649 7.13753C35.3023 6.64357 35.5886 6.28292 36.0238 6.05561C36.4636 5.82393 37.0751 5.70809 37.8585 5.70809H38.6556C39.5717 5.70809 40.2497 5.91791 40.6895 6.33757C41.1292 6.75722 41.3491 7.40419 41.3491 8.27847V11.8062C41.3491 12.1734 41.1567 12.357 40.7719 12.357C40.3871 12.357 40.1947 12.1734 40.1947 11.8062V11.5111C39.7046 12.075 38.99 12.357 38.0509 12.357H37.2813ZM37.2813 11.2554H38.0509C38.3899 11.2554 38.7082 11.227 39.006 11.1702C39.3038 11.109 39.558 10.9997 39.7687 10.8423C39.984 10.6849 40.126 10.4598 40.1947 10.1669V9.10467H37.2813C36.8278 9.10467 36.5254 9.1768 36.3743 9.32105C36.2277 9.46531 36.1544 9.75163 36.1544 10.18C36.1544 10.6128 36.2277 10.9013 36.3743 11.0456C36.5254 11.1855 36.8278 11.2554 37.2813 11.2554Z" fill="white"/>
<path d="M49.7375 5.70809C50.1223 5.70809 50.3147 5.89168 50.3147 6.25888V11.8062C50.3147 12.1734 50.1223 12.357 49.7375 12.357C49.3527 12.357 49.1603 12.1734 49.1603 11.8062V11.5898C48.6748 12.1013 47.9601 12.357 47.0165 12.357H46.6317C45.7201 12.357 45.0421 12.1472 44.5978 11.7275C44.158 11.3035 43.9381 10.6565 43.9381 9.78661V6.25888C43.9381 5.89168 44.1305 5.70809 44.5153 5.70809C44.9001 5.70809 45.0925 5.89168 45.0925 6.25888V9.78661C45.0925 10.3549 45.2002 10.7418 45.4155 10.9472C45.6353 11.1527 46.0408 11.2554 46.6317 11.2554H47.0165C47.5662 11.2554 48.0449 11.1942 48.4526 11.0718C48.8649 10.9494 49.1008 10.7614 49.1603 10.5079V6.25888C49.1603 5.89168 49.3527 5.70809 49.7375 5.70809Z" fill="white"/>
<path d="M56.1157 12.357C55.2086 12.357 54.5398 12.1515 54.1092 11.7406C53.6786 11.3297 53.4633 10.6959 53.4633 9.83906V6.80968H52.7899C52.4051 6.80968 52.2127 6.62608 52.2127 6.25888C52.2127 5.89168 52.4051 5.70809 52.7899 5.70809H53.4633V4.75075C53.4633 4.38355 53.6557 4.19995 54.0405 4.19995C54.4253 4.19995 54.6177 4.38355 54.6177 4.75075V5.70809H56.1981C56.5829 5.70809 56.7753 5.89168 56.7753 6.25888C56.7753 6.62608 56.5829 6.80968 56.1981 6.80968H54.6177V9.83906C54.6177 10.3942 54.7231 10.7702 54.9338 10.9669C55.1445 11.1592 55.5385 11.2554 56.1157 11.2554C56.2943 11.2554 56.434 11.2991 56.5348 11.3865C56.6402 11.474 56.6928 11.6139 56.6928 11.8062C56.6928 12.1734 56.5004 12.357 56.1157 12.357Z" fill="white"/>
<path d="M60.7456 12.357C59.8341 12.357 59.1561 12.1472 58.7117 11.7275C58.272 11.3079 58.0521 10.6653 58.0521 9.79972V8.27847C58.0521 7.39982 58.272 6.75285 58.7117 6.33757C59.1561 5.91791 59.8341 5.70809 60.7456 5.70809H61.8726C62.7887 5.70809 63.4667 5.91791 63.9065 6.33757C64.3462 6.75722 64.5661 7.40419 64.5661 8.27847V9.78661C64.5661 10.6565 64.3462 11.3035 63.9065 11.7275C63.4667 12.1472 62.7887 12.357 61.8726 12.357H60.7456ZM59.2065 9.79972C59.2065 10.3636 59.3141 10.7483 59.5294 10.9538C59.7447 11.1549 60.1501 11.2554 60.7456 11.2554H61.8726C62.4726 11.2554 62.8781 11.1527 63.0888 10.9472C63.3041 10.7418 63.4117 10.3549 63.4117 9.78661V8.27847C63.4117 7.70582 63.3041 7.31895 63.0888 7.11786C62.8781 6.91241 62.4726 6.80968 61.8726 6.80968H60.7456C60.3471 6.80968 60.0356 6.85339 59.8111 6.94082C59.5913 7.02388 59.4355 7.17251 59.3439 7.3867C59.2523 7.59653 59.2065 7.89379 59.2065 8.27847V9.79972Z" fill="white"/>
<path d="M74.7191 5.70809C75.5849 5.70809 76.2056 5.90261 76.5812 6.29167C76.9614 6.68072 77.1515 7.3255 77.1515 8.22601V11.8062C77.1515 12.1734 76.9591 12.357 76.5743 12.357C76.1895 12.357 75.9971 12.1734 75.9971 11.8062V8.22601C75.9971 7.72767 75.8964 7.36703 75.6948 7.14409C75.4978 6.92115 75.1726 6.80968 74.7191 6.80968H74.1556C73.6334 6.80968 73.2601 6.92115 73.0356 7.14409C72.8111 7.36703 72.6989 7.72767 72.6989 8.22601V11.8062C72.6989 12.1734 72.5065 12.357 72.1217 12.357C71.7369 12.357 71.5445 12.1734 71.5445 11.8062V8.22601C71.5445 7.72767 71.4437 7.36703 71.2422 7.14409C71.0452 6.92115 70.7199 6.80968 70.2664 6.80968H69.703C69.1808 6.80968 68.8074 6.92115 68.583 7.14409C68.3585 7.36703 68.2463 7.72767 68.2463 8.22601V11.8062C68.2463 12.1734 68.0539 12.357 67.6691 12.357C67.2843 12.357 67.0919 12.1734 67.0919 11.8062V6.25888C67.0919 5.89168 67.2843 5.70809 67.6691 5.70809C68.0539 5.70809 68.2463 5.89168 68.2463 6.25888V6.56051C68.4891 6.25888 68.7547 6.0425 69.0433 5.91136C69.3365 5.77584 69.6847 5.70809 70.0878 5.70809H70.2664C70.8345 5.70809 71.2811 5.78458 71.6064 5.93758C71.9316 6.08621 72.179 6.32882 72.3485 6.66542C72.5912 6.32008 72.8478 6.07528 73.118 5.93103C73.3929 5.7824 73.7388 5.70809 74.1556 5.70809H74.7191Z" fill="white"/>
<path d="M81.7437 12.357C80.9741 12.357 80.4015 12.1778 80.0259 11.8193C79.6503 11.4609 79.4624 10.9144 79.4624 10.18C79.4624 9.44564 79.648 8.89921 80.019 8.54076C80.3947 8.1823 80.9696 8.00307 81.7437 8.00307H84.6503C84.6228 7.54408 84.4969 7.23152 84.2724 7.06541C84.0479 6.89492 83.6631 6.80968 83.118 6.80968H82.3209C81.8628 6.80968 81.5216 6.84028 81.2971 6.90148C81.0726 6.95831 80.9146 7.06322 80.823 7.21622C80.7405 7.39982 80.6558 7.52659 80.5687 7.59653C80.4817 7.66647 80.3511 7.70145 80.1771 7.70145C79.9847 7.70145 79.8335 7.65117 79.7236 7.55063C79.6136 7.44572 79.5816 7.30802 79.6274 7.13753C79.7648 6.64357 80.0511 6.28292 80.4863 6.05561C80.926 5.82393 81.5376 5.70809 82.3209 5.70809H83.118C84.0342 5.70809 84.7122 5.91791 85.1519 6.33757C85.5917 6.75722 85.8116 7.40419 85.8116 8.27847V11.8062C85.8116 12.1734 85.6192 12.357 85.2344 12.357C84.8496 12.357 84.6572 12.1734 84.6572 11.8062V11.5111C84.167 12.075 83.4524 12.357 82.5133 12.357H81.7437ZM81.7437 11.2554H82.5133C82.8523 11.2554 83.1707 11.227 83.4684 11.1702C83.7662 11.109 84.0204 10.9997 84.2312 10.8423C84.4465 10.6849 84.5885 10.4598 84.6572 10.1669V9.10467H81.7437C81.2902 9.10467 80.9879 9.1768 80.8367 9.32105C80.6901 9.46531 80.6168 9.75163 80.6168 10.18C80.6168 10.6128 80.6901 10.9013 80.8367 11.0456C80.9879 11.1855 81.2902 11.2554 81.7437 11.2554Z" fill="white"/>
<path d="M91.4789 12.357C90.5719 12.357 89.9031 12.1515 89.4725 11.7406C89.0419 11.3297 88.8266 10.6959 88.8266 9.83906V6.80968H88.1532C87.7684 6.80968 87.576 6.62608 87.576 6.25888C87.576 5.89168 87.7684 5.70809 88.1532 5.70809H88.8266V4.75075C88.8266 4.38355 89.019 4.19995 89.4038 4.19995C89.7886 4.19995 89.981 4.38355 89.981 4.75075V5.70809H91.5614C91.9462 5.70809 92.1386 5.89168 92.1386 6.25888C92.1386 6.62608 91.9462 6.80968 91.5614 6.80968H89.981V9.83906C89.981 10.3942 90.0863 10.7702 90.2971 10.9669C90.5078 11.1592 90.9017 11.2554 91.4789 11.2554C91.6576 11.2554 91.7973 11.2991 91.8981 11.3865C92.0034 11.474 92.0561 11.6139 92.0561 11.8062C92.0561 12.1734 91.8637 12.357 91.4789 12.357Z" fill="white"/>
<path d="M94.6802 4.63272C94.245 4.63272 94.0275 4.42289 94.0275 4.00324V3.61637C94.0275 3.20546 94.245 3 94.6802 3H95.0788C95.4956 3 95.7041 3.20546 95.7041 3.61637V4.00324C95.7041 4.42289 95.4956 4.63272 95.0788 4.63272H94.6802ZM94.8726 12.357C94.4878 12.357 94.2954 12.1734 94.2954 11.8062V6.25888C94.2954 5.89168 94.4878 5.70809 94.8726 5.70809C95.2574 5.70809 95.4498 5.89168 95.4498 6.25888V11.8062C95.4498 12.1734 95.2574 12.357 94.8726 12.357Z" fill="white"/>
<path d="M100.672 12.357C99.7603 12.357 99.0824 12.1472 98.638 11.7275C98.1982 11.3079 97.9784 10.6653 97.9784 9.79972V8.27847C97.9784 7.39982 98.1982 6.75285 98.638 6.33757C99.0824 5.91791 99.7603 5.70809 100.672 5.70809H101.799C102.715 5.70809 103.393 5.91791 103.833 6.33757C104.273 6.75722 104.492 7.40419 104.492 8.27847V9.78661C104.492 10.6565 104.273 11.3035 103.833 11.7275C103.393 12.1472 102.715 12.357 101.799 12.357H100.672ZM99.1328 9.79972C99.1328 10.3636 99.2404 10.7483 99.4557 10.9538C99.671 11.1549 100.076 11.2554 100.672 11.2554H101.799C102.399 11.2554 102.804 11.1527 103.015 10.9472C103.23 10.7418 103.338 10.3549 103.338 9.78661V8.27847C103.338 7.70582 103.23 7.31895 103.015 7.11786C102.804 6.91241 102.399 6.80968 101.799 6.80968H100.672C100.273 6.80968 99.9619 6.85339 99.7374 6.94082C99.5175 7.02388 99.3618 7.17251 99.2702 7.3867C99.1786 7.59653 99.1328 7.89379 99.1328 8.27847V9.79972Z" fill="white"/>
<path d="M107.595 12.357C107.211 12.357 107.018 12.1734 107.018 11.8062V6.25888C107.018 5.89168 107.211 5.70809 107.595 5.70809C107.98 5.70809 108.173 5.89168 108.173 6.25888V6.47527C108.658 5.96381 109.373 5.70809 110.316 5.70809H110.701C111.617 5.70809 112.295 5.91791 112.735 6.33757C113.175 6.75722 113.395 7.40419 113.395 8.27847V11.8062C113.395 12.1734 113.202 12.357 112.818 12.357C112.433 12.357 112.24 12.1734 112.24 11.8062V8.27847C112.24 7.70582 112.13 7.31895 111.911 7.11786C111.695 6.91241 111.292 6.80968 110.701 6.80968H110.316C109.767 6.80968 109.288 6.87088 108.88 6.99328C108.473 7.11131 108.237 7.29928 108.173 7.55719V11.8062C108.173 12.1734 107.98 12.357 107.595 12.357Z" fill="white"/>
<path d="M37.2813 24.9914C36.5117 24.9914 35.9391 24.8122 35.5635 24.4537C35.1878 24.0953 35 23.5489 35 22.8145C35 22.0801 35.1855 21.5336 35.5566 21.1752C35.9322 20.8167 36.5071 20.6375 37.2813 20.6375H40.1879C40.1604 20.1785 40.0344 19.8659 39.8099 19.6998C39.5855 19.5293 39.2007 19.4441 38.6556 19.4441H37.8585C37.4004 19.4441 37.0591 19.4747 36.8346 19.5359C36.6102 19.5927 36.4521 19.6976 36.3605 19.8506C36.2781 20.0342 36.1933 20.161 36.1063 20.231C36.0192 20.3009 35.8887 20.3359 35.7146 20.3359C35.5222 20.3359 35.3711 20.2856 35.2611 20.1851C35.1512 20.0801 35.1191 19.9424 35.1649 19.772C35.3023 19.278 35.5886 18.9174 36.0238 18.69C36.4636 18.4584 37.0751 18.3425 37.8585 18.3425H38.6556C39.5717 18.3425 40.2497 18.5523 40.6895 18.972C41.1292 19.3916 41.3491 20.0386 41.3491 20.9129V24.4406C41.3491 24.8078 41.1567 24.9914 40.7719 24.9914C40.3871 24.9914 40.1947 24.8078 40.1947 24.4406V24.1456C39.7046 24.7095 38.99 24.9914 38.0509 24.9914H37.2813ZM37.2813 23.8898H38.0509C38.3899 23.8898 38.7082 23.8614 39.006 23.8046C39.3038 23.7434 39.558 23.6341 39.7687 23.4767C39.984 23.3194 40.126 23.0942 40.1947 22.8013V21.7391H37.2813C36.8278 21.7391 36.5254 21.8112 36.3743 21.9555C36.2277 22.0997 36.1544 22.3861 36.1544 22.8145C36.1544 23.2472 36.2277 23.5357 36.3743 23.68C36.5254 23.8199 36.8278 23.8898 37.2813 23.8898Z" fill="white"/>
<path d="M44.6527 24.9914C44.2679 24.9914 44.0755 24.8078 44.0755 24.4406V18.8933C44.0755 18.5261 44.2679 18.3425 44.6527 18.3425C45.0375 18.3425 45.2299 18.5261 45.2299 18.8933V19.4048C45.5002 19.055 45.8438 18.7906 46.2606 18.6114C46.6821 18.4321 47.1631 18.3425 47.7036 18.3425C48.0884 18.3425 48.2808 18.5261 48.2808 18.8933C48.2808 19.2605 48.0884 19.4441 47.7036 19.4441C46.9111 19.4441 46.3064 19.584 45.8896 19.8638C45.4727 20.1435 45.2528 20.5129 45.2299 20.9719V24.4406C45.2299 24.8078 45.0375 24.9914 44.6527 24.9914Z" fill="white"/>
<path d="M52.0357 24.9914C51.1241 24.9914 50.4461 24.7816 50.0018 24.3619C49.562 23.9379 49.3421 23.2909 49.3421 22.421V20.8998C49.3421 20.0255 49.5597 19.3785 49.9949 18.9589C50.4347 18.5392 51.1149 18.3338 52.0357 18.3425H53.1626C53.8451 18.3425 54.3811 18.4518 54.7705 18.6704C55.1644 18.8889 55.4164 19.2255 55.5263 19.6802C55.5676 19.8638 55.5332 20.0058 55.4233 20.1064C55.3179 20.2069 55.1644 20.2572 54.9629 20.2572C54.7842 20.2572 54.6537 20.2135 54.5712 20.126C54.4888 20.0386 54.4132 19.9162 54.3445 19.7588C54.2757 19.6408 54.1498 19.5599 53.9665 19.5162C53.7833 19.4681 53.5153 19.4441 53.1626 19.4441H52.0357C51.4447 19.4354 51.0393 19.5337 50.8195 19.7392C50.6041 19.9403 50.4965 20.3271 50.4965 20.8998V22.421C50.4965 22.9893 50.6041 23.3762 50.8195 23.5816C51.0393 23.7871 51.4447 23.8898 52.0357 23.8898H53.1626C53.5153 23.8898 53.7833 23.868 53.9665 23.8243C54.1498 23.7762 54.2757 23.6931 54.3445 23.5751C54.4132 23.409 54.4888 23.2844 54.5712 23.2013C54.6582 23.1183 54.7934 23.0767 54.9766 23.0767C55.169 23.0767 55.3179 23.127 55.4233 23.2276C55.5332 23.3281 55.5676 23.4702 55.5263 23.6538C55.4164 24.104 55.1644 24.4406 54.7705 24.6636C54.3811 24.8821 53.8451 24.9914 53.1626 24.9914H52.0357Z" fill="white"/>
<path d="M58.5028 24.9914C58.118 24.9914 57.9256 24.8078 57.9256 24.4406V16.3098C57.9256 15.9426 58.118 15.759 58.5028 15.759C58.8876 15.759 59.08 15.9426 59.08 16.3098V19.1097C59.5656 18.5982 60.2802 18.3425 61.2239 18.3425H61.6086C62.5248 18.3425 63.2028 18.5523 63.6426 18.972C64.0823 19.3916 64.3022 20.0386 64.3022 20.9129V24.4406C64.3022 24.8078 64.1098 24.9914 63.725 24.9914C63.3402 24.9914 63.1478 24.8078 63.1478 24.4406V20.9129C63.1478 20.3402 63.0379 19.9534 62.818 19.7523C62.6027 19.5468 62.1996 19.4441 61.6086 19.4441H61.2239C60.6741 19.4441 60.1954 19.5053 59.7877 19.6277C59.38 19.7457 59.1441 19.9337 59.08 20.1916V24.4406C59.08 24.8078 58.8876 24.9914 58.5028 24.9914Z" fill="white"/>
<path d="M67.4096 17.2671C66.9744 17.2671 66.7568 17.0573 66.7568 16.6377V16.2508C66.7568 15.8399 66.9744 15.6344 67.4096 15.6344H67.8081C68.225 15.6344 68.4334 15.8399 68.4334 16.2508V16.6377C68.4334 17.0573 68.225 17.2671 67.8081 17.2671H67.4096ZM67.602 24.9914C67.2172 24.9914 67.0248 24.8078 67.0248 24.4406V18.8933C67.0248 18.5261 67.2172 18.3425 67.602 18.3425C67.9868 18.3425 68.1792 18.5261 68.1792 18.8933V24.4406C68.1792 24.8078 67.9868 24.9914 67.602 24.9914Z" fill="white"/>
<path d="M73.9785 24.9914C73.0714 24.9914 72.4026 24.786 71.972 24.375C71.5414 23.9641 71.3261 23.3303 71.3261 22.4735V19.4441H70.6527C70.2679 19.4441 70.0755 19.2605 70.0755 18.8933C70.0755 18.5261 70.2679 18.3425 70.6527 18.3425H71.3261V17.3852C71.3261 17.018 71.5185 16.8344 71.9033 16.8344C72.2881 16.8344 72.4805 17.018 72.4805 17.3852V18.3425H74.0609C74.4457 18.3425 74.6381 18.5261 74.6381 18.8933C74.6381 19.2605 74.4457 19.4441 74.0609 19.4441H72.4805V22.4735C72.4805 23.0287 72.5859 23.4046 72.7966 23.6013C73.0073 23.7937 73.4013 23.8898 73.9785 23.8898C74.1571 23.8898 74.2968 23.9335 74.3976 24.021C74.503 24.1084 74.5557 24.2483 74.5557 24.4406C74.5557 24.8078 74.3633 24.9914 73.9785 24.9914Z" fill="white"/>
<path d="M77.0693 22.1194V22.4341C77.0693 22.9981 77.1769 23.3827 77.3922 23.5882C77.6075 23.7893 78.013 23.8898 78.6085 23.8898H79.7354C80.2026 23.8898 80.5485 23.8483 80.7729 23.7652C80.9974 23.6822 81.1463 23.5357 81.2196 23.3259C81.27 23.1598 81.3387 23.033 81.4257 22.9456C81.5173 22.8582 81.6548 22.8145 81.838 22.8145C82.0304 22.8145 82.177 22.8625 82.2778 22.9587C82.3785 23.0549 82.4106 23.1948 82.374 23.3784C82.2732 23.9204 82.0029 24.3248 81.5632 24.5914C81.1234 24.8581 80.5141 24.9914 79.7354 24.9914H78.6085C77.6969 24.9914 77.0189 24.7816 76.5746 24.3619C76.1348 23.9423 75.9149 23.2997 75.9149 22.4341V20.9129C75.9149 20.0255 76.1348 19.3742 76.5746 18.9589C77.0189 18.5392 77.6969 18.3338 78.6085 18.3425H79.7354C80.6516 18.3425 81.3295 18.5523 81.7693 18.972C82.2091 19.3873 82.4289 20.0342 82.4289 20.9129V21.5686C82.4289 21.9358 82.2365 22.1194 81.8517 22.1194H77.0693ZM78.6085 19.4441C78.013 19.4354 77.6075 19.5337 77.3922 19.7392C77.1769 19.9446 77.0693 20.3359 77.0693 20.9129V21.0178H81.2746V20.9129C81.2746 20.3402 81.1669 19.9534 80.9516 19.7523C80.7409 19.5468 80.3355 19.4441 79.7354 19.4441H78.6085Z" fill="white"/>
<path d="M87.3184 24.9914C86.4068 24.9914 85.7289 24.7816 85.2845 24.3619C84.8448 23.9379 84.6249 23.2909 84.6249 22.421V20.8998C84.6249 20.0255 84.8425 19.3785 85.2776 18.9589C85.7174 18.5392 86.3977 18.3338 87.3184 18.3425H88.4453C89.1279 18.3425 89.6639 18.4518 90.0532 18.6704C90.4472 18.8889 90.6991 19.2255 90.8091 19.6802C90.8503 19.8638 90.816 20.0058 90.706 20.1064C90.6007 20.2069 90.4472 20.2572 90.2456 20.2572C90.067 20.2572 89.9364 20.2135 89.854 20.126C89.7715 20.0386 89.6959 19.9162 89.6272 19.7588C89.5585 19.6408 89.4325 19.5599 89.2493 19.5162C89.0661 19.4681 88.7981 19.4441 88.4453 19.4441H87.3184C86.7275 19.4354 86.3221 19.5337 86.1022 19.7392C85.8869 19.9403 85.7793 20.3271 85.7793 20.8998V22.421C85.7793 22.9893 85.8869 23.3762 86.1022 23.5816C86.3221 23.7871 86.7275 23.8898 87.3184 23.8898H88.4453C88.7981 23.8898 89.0661 23.868 89.2493 23.8243C89.4325 23.7762 89.5585 23.6931 89.6272 23.5751C89.6959 23.409 89.7715 23.2844 89.854 23.2013C89.941 23.1183 90.0761 23.0767 90.2594 23.0767C90.4518 23.0767 90.6007 23.127 90.706 23.2276C90.816 23.3281 90.8503 23.4702 90.8091 23.6538C90.6991 24.104 90.4472 24.4406 90.0532 24.6636C89.6639 24.8821 89.1279 24.9914 88.4453 24.9914H87.3184Z" fill="white"/>
<path d="M96.1493 24.9914C95.2423 24.9914 94.5735 24.786 94.1429 24.375C93.7123 23.9641 93.497 23.3303 93.497 22.4735V19.4441H92.8236C92.4388 19.4441 92.2464 19.2605 92.2464 18.8933C92.2464 18.5261 92.4388 18.3425 92.8236 18.3425H93.497V17.3852C93.497 17.018 93.6894 16.8344 94.0742 16.8344C94.4589 16.8344 94.6513 17.018 94.6513 17.3852V18.3425H96.2318C96.6166 18.3425 96.809 18.5261 96.809 18.8933C96.809 19.2605 96.6166 19.4441 96.2318 19.4441H94.6513V22.4735C94.6513 23.0287 94.7567 23.4046 94.9674 23.6013C95.1782 23.7937 95.5721 23.8898 96.1493 23.8898C96.328 23.8898 96.4677 23.9335 96.5685 24.021C96.6738 24.1084 96.7265 24.2483 96.7265 24.4406C96.7265 24.8078 96.5341 24.9914 96.1493 24.9914Z" fill="white"/>
<path d="M104.628 18.3425C105.013 18.3425 105.205 18.5261 105.205 18.8933V24.4406C105.205 24.8078 105.013 24.9914 104.628 24.9914C104.243 24.9914 104.051 24.8078 104.051 24.4406V24.2242C103.565 24.7357 102.85 24.9914 101.907 24.9914H101.522C100.61 24.9914 99.9324 24.7816 99.488 24.3619C99.0483 23.9379 98.8284 23.2909 98.8284 22.421V18.8933C98.8284 18.5261 99.0208 18.3425 99.4056 18.3425C99.7904 18.3425 99.9828 18.5261 99.9828 18.8933V22.421C99.9828 22.9893 100.09 23.3762 100.306 23.5816C100.526 23.7871 100.931 23.8898 101.522 23.8898H101.907C102.456 23.8898 102.935 23.8286 103.343 23.7062C103.755 23.5838 103.991 23.3959 104.051 23.1423V18.8933C104.051 18.5261 104.243 18.3425 104.628 18.3425Z" fill="white"/>
<path d="M108.642 24.9914C108.257 24.9914 108.065 24.8078 108.065 24.4406V18.8933C108.065 18.5261 108.257 18.3425 108.642 18.3425C109.027 18.3425 109.219 18.5261 109.219 18.8933V19.4048C109.49 19.055 109.833 18.7906 110.25 18.6114C110.672 18.4321 111.152 18.3425 111.693 18.3425C112.078 18.3425 112.27 18.5261 112.27 18.8933C112.27 19.2605 112.078 19.4441 111.693 19.4441C110.901 19.4441 110.296 19.584 109.879 19.8638C109.462 20.1435 109.242 20.5129 109.219 20.9719V24.4406C109.219 24.8078 109.027 24.9914 108.642 24.9914Z" fill="white"/>
<path d="M114.486 22.1194V22.4341C114.486 22.9981 114.594 23.3827 114.809 23.5882C115.024 23.7893 115.43 23.8898 116.025 23.8898H117.152C117.619 23.8898 117.965 23.8483 118.19 23.7652C118.414 23.6822 118.563 23.5357 118.636 23.3259C118.687 23.1598 118.755 23.033 118.842 22.9456C118.934 22.8582 119.071 22.8145 119.255 22.8145C119.447 22.8145 119.594 22.8625 119.694 22.9587C119.795 23.0549 119.827 23.1948 119.791 23.3784C119.69 23.9204 119.42 24.3248 118.98 24.5914C118.54 24.8581 117.931 24.9914 117.152 24.9914H116.025C115.114 24.9914 114.436 24.7816 113.991 24.3619C113.551 23.9423 113.332 23.2997 113.332 22.4341V20.9129C113.332 20.0255 113.551 19.3742 113.991 18.9589C114.436 18.5392 115.114 18.3338 116.025 18.3425H117.152C118.068 18.3425 118.746 18.5523 119.186 18.972C119.626 19.3873 119.846 20.0342 119.846 20.9129V21.5686C119.846 21.9358 119.653 22.1194 119.268 22.1194H114.486ZM116.025 19.4441C115.43 19.4354 115.024 19.5337 114.809 19.7392C114.594 19.9446 114.486 20.3359 114.486 20.9129V21.0178H118.691V20.9129C118.691 20.3402 118.584 19.9534 118.368 19.7523C118.158 19.5468 117.752 19.4441 117.152 19.4441H116.025Z" fill="white"/>
<path d="M126.253 24.939C125.887 24.8034 125.777 24.563 125.923 24.2177L129.194 16.5327C129.331 16.2442 129.547 16.1 129.84 16.1H129.867C130.165 16.1131 130.367 16.2574 130.472 16.5327L133.798 24.2177C133.944 24.563 133.839 24.8034 133.482 24.939C133.12 25.0745 132.868 24.9739 132.726 24.6373L131.984 22.9194H127.703L126.995 24.6373C126.853 24.9783 126.606 25.0788 126.253 24.939ZM128.156 21.8178H131.51L129.799 17.8442L128.156 21.8178Z" fill="white"/>
<path d="M136.423 24.9914C136.226 24.9914 136.079 24.9477 135.983 24.8603C135.891 24.7685 135.846 24.6286 135.846 24.4406V16.6639C135.846 16.4715 135.891 16.3317 135.983 16.2442C136.079 16.1568 136.226 16.1131 136.423 16.1131C136.624 16.1131 136.771 16.1568 136.863 16.2442C136.954 16.3317 137 16.4715 137 16.6639V24.4406C137 24.6286 136.954 24.7685 136.863 24.8603C136.771 24.9477 136.624 24.9914 136.423 24.9914Z" fill="white"/>
</svg>
