<svg width="50" height="49" viewBox="0 0 50 49" fill="none" xmlns="http://www.w3.org/2000/svg">
    <path d="M38.8672 0C44.39 0 48.8672 4.47715 48.8672 10V38.8721C48.8672 44.3949 44.39 48.873 38.8672 48.873H10C4.47715 48.873 0 44.3949 0 38.8721V10C8.91858e-08 4.47715 4.47715 0 10 0H38.8672ZM31.4756 15.1748C28.5082 9.6697 21.6465 7.61533 16.1494 10.5869C14.51 11.4733 13.8982 13.5232 14.7832 15.165L20.0957 25.0195C20.5632 25.8869 20.2401 26.9703 19.374 27.4385L19.1895 27.5381C18.4253 27.9511 17.4712 27.6655 17.0586 26.9004C16.2806 25.4571 14.4813 24.9181 13.04 25.6973C8.51052 28.146 6.82077 33.8085 9.26562 38.3447L10.0205 39.7441C10.9311 41.4334 13.0368 42.0643 14.7236 41.1523L18.8271 38.9336C20.8444 37.843 21.5975 35.3211 20.5088 33.3008C20.0809 32.5071 20.3764 31.5164 21.1689 31.0879L21.3018 31.0156C22.1679 30.5473 23.2492 30.8709 23.7168 31.7383L27.1592 38.124C28.2483 40.1439 30.766 40.8979 32.7832 39.8076L38.8213 36.543C40.6058 35.578 41.272 33.3469 40.3086 31.5596L31.4756 15.1748Z" fill="#E6FF2B"/>
</svg>
