<svg xmlns="http://www.w3.org/2000/svg" width="55" height="16" viewBox="0 0 55 16" fill="none">
  <path fill-rule="evenodd" clip-rule="evenodd" d="M12.1276 0C14.0411 0 15.5923 1.59168 15.5923 3.55511V12.4449C15.5922 14.4082 14.041 16 12.1276 16H3.46475C1.55129 16 0.000118337 14.4082 0 12.4449V3.55511C0 1.59168 1.55122 0 3.46475 0H12.1276ZM10.0428 4.96764C9.09598 3.16552 6.9066 2.49311 5.15265 3.46584C4.62955 3.75601 4.43428 4.42716 4.71666 4.96466L6.41181 8.19095C6.56097 8.47489 6.45758 8.82924 6.18125 8.98252L6.12276 9.01525C5.8789 9.15052 5.57432 9.05701 5.44267 8.80645C5.1944 8.33398 4.62016 8.15758 4.16031 8.41265C2.71506 9.21435 2.17606 11.0684 2.95625 12.5535L3.19696 13.0113C3.48751 13.5643 4.15958 13.7711 4.69781 13.4725L6.00724 12.7459C6.65087 12.3889 6.89075 11.5633 6.54329 10.9019C6.40678 10.6421 6.50119 10.3176 6.75403 10.1773L6.79657 10.154C7.07292 10.0007 7.41786 10.1066 7.56705 10.3906L8.66525 12.4811C9.01273 13.1424 9.81632 13.389 10.46 13.0321L12.3867 11.9633C12.956 11.6474 13.1686 10.9171 12.8613 10.3321L10.0428 4.96764Z" fill="#010101"/>
  <path d="M21.0756 12.6133C20.7291 12.4756 20.6252 12.2311 20.7638 11.88L23.8563 4.06667C23.9862 3.77333 24.1898 3.62667 24.467 3.62667H24.4929C24.7745 3.64 24.965 3.78667 25.0647 4.06667L28.2091 11.88C28.3477 12.2311 28.2481 12.4756 27.9103 12.6133C27.5681 12.7511 27.3299 12.6489 27.1956 12.3067L26.494 10.56H22.4465L21.7773 12.3067C21.643 12.6533 21.4091 12.7556 21.0756 12.6133ZM22.8752 9.44H26.0457L24.428 5.4L22.8752 9.44Z" fill="#010101"/>
  <path d="M30.6911 12.6667C30.5049 12.6667 30.3663 12.6222 30.2753 12.5333C30.1887 12.44 30.1454 12.2978 30.1454 12.1067V4.2C30.1454 4.00444 30.1887 3.86222 30.2753 3.77333C30.3663 3.68444 30.5049 3.64 30.6911 3.64C30.8817 3.64 31.0203 3.68444 31.1069 3.77333C31.1935 3.86222 31.2368 4.00444 31.2368 4.2V12.1067C31.2368 12.2978 31.1935 12.44 31.1069 12.5333C31.0203 12.6222 30.8817 12.6667 30.6911 12.6667Z" fill="#010101"/>
  <path d="M36.5381 12.6667C35.5463 12.6667 34.8121 12.4244 34.3357 11.94C33.8636 11.4511 33.6276 10.6978 33.6276 9.68V6.6C33.6276 5.57333 33.8658 4.82 34.3422 4.34C34.8186 3.85556 35.5506 3.61778 36.5381 3.62667H38.0974C39.0935 3.62667 39.8277 3.86889 40.2998 4.35333C40.7719 4.83778 41.0079 5.59111 41.0079 6.61333V9.68C41.0079 10.6978 40.7719 11.4511 40.2998 11.94C39.8277 12.4244 39.0935 12.6667 38.0974 12.6667H36.5381ZM36.5381 11.5467H38.0974C38.5608 11.5467 38.9246 11.4911 39.1888 11.38C39.453 11.2644 39.6393 11.0711 39.7475 10.8C39.8601 10.5289 39.9165 10.1556 39.9165 9.68V6.61333C39.9165 6.14222 39.8601 5.77111 39.7475 5.5C39.6393 5.22889 39.453 5.03556 39.1888 4.92C38.9246 4.80444 38.5608 4.74667 38.0974 4.74667H36.5381C36.079 4.74222 35.7174 4.79556 35.4532 4.90667C35.1889 5.01778 35.0005 5.20889 34.8879 5.48C34.7753 5.75111 34.719 6.12444 34.719 6.6V9.68C34.719 10.1556 34.7732 10.5289 34.8814 10.8C34.994 11.0711 35.1825 11.2644 35.4467 11.38C35.7109 11.4911 36.0747 11.5467 36.5381 11.5467Z" fill="#010101"/>
  <path d="M45.5952 12.6667C44.8545 12.6667 44.2763 12.5133 43.8605 12.2067C43.4491 11.9 43.1914 11.4267 43.0874 10.7867C43.0701 10.5911 43.1091 10.4444 43.2043 10.3467C43.2996 10.2489 43.4382 10.2 43.6201 10.2C43.8021 10.2 43.9342 10.2444 44.0164 10.3333C44.1031 10.4222 44.1615 10.56 44.1919 10.7467C44.2568 11.0533 44.3954 11.2644 44.6077 11.38C44.8242 11.4911 45.1534 11.5467 45.5952 11.5467H47.4662C48.025 11.5467 48.404 11.4444 48.6032 11.24C48.8068 11.0311 48.9085 10.6444 48.9085 10.08C48.9085 9.50667 48.8046 9.11556 48.5967 8.90667C48.3888 8.69333 48.012 8.58667 47.4662 8.58667H45.855C45.0364 8.58667 44.4279 8.38222 44.0294 7.97333C43.6353 7.56 43.4382 6.93333 43.4382 6.09333C43.4382 5.25778 43.6331 4.63778 44.0229 4.23333C44.4171 3.82889 45.0234 3.62667 45.842 3.62667H47.3883C48.077 3.62667 48.6162 3.77111 49.006 4.06C49.4001 4.34889 49.6492 4.79111 49.7531 5.38667C49.7791 5.57778 49.7445 5.72444 49.6492 5.82667C49.5539 5.92444 49.411 5.97333 49.2204 5.97333C49.0471 5.97333 48.9172 5.92667 48.8306 5.83333C48.7439 5.74 48.6876 5.60444 48.6617 5.42667C48.5924 5.16444 48.4603 4.98667 48.2654 4.89333C48.0705 4.79556 47.7781 4.74667 47.3883 4.74667H45.842C45.3223 4.74667 44.9736 4.84222 44.7961 5.03333C44.6185 5.22 44.5297 5.57333 44.5297 6.09333C44.5297 6.61778 44.6206 6.97778 44.8026 7.17333C44.9845 7.36889 45.3353 7.46667 45.855 7.46667H47.4662C48.3195 7.46667 48.954 7.68 49.3698 8.10667C49.7899 8.53333 50 9.19111 50 10.08C50 10.9644 49.7921 11.6178 49.3763 12.04C48.9605 12.4578 48.3238 12.6667 47.4662 12.6667H45.5952Z" fill="#010101"/>
</svg>
