<svg xmlns="http://www.w3.org/2000/svg" width="15" height="14" viewBox="0 0 15 14" fill="none">
  <path d="M11.25 14V12.6H13.5V10.5H15V12.95C15 13.223 14.88 13.468 14.655 13.678C14.43 13.888 14.1675 14 13.875 14H11.25ZM3.75 14H1.125C0.8325 14 0.57 13.888 0.345 13.678C0.12 13.468 0 13.223 0 12.95V10.5H1.5V12.6H3.75V14ZM11.25 0H13.875C14.1675 0 14.43 0.112 14.655 0.322C14.88 0.532 15 0.777 15 1.05V3.5H13.5V1.4H11.25V0ZM3.75 0V1.4H1.5V3.5H0V1.05C0 0.777 0.12 0.532 0.345 0.322C0.57 0.112 0.8325 0 1.125 0H3.75ZM8.25 10.675L11.25 9.065V5.852L8.25 7.462V10.675ZM7.5 6.244L10.5 4.641L7.5 2.996L4.5 4.641L7.5 6.244ZM3.75 9.065L6.75 10.675V7.462L3.75 5.852V9.065ZM12.1725 3.913C12.5475 4.137 12.75 4.438 12.75 4.837V9.261C12.75 9.66 12.5475 9.961 12.1725 10.185L8.0625 12.411C7.6875 12.635 7.3125 12.635 6.9375 12.411L2.8275 10.185C2.4525 9.961 2.25 9.66 2.25 9.261V4.837C2.25 4.438 2.4525 4.137 2.8275 3.913L6.9375 1.687C7.125 1.596 7.3125 1.554 7.5 1.554C7.6875 1.554 7.875 1.596 8.0625 1.687L12.1725 3.913Z" fill="black"/>
</svg>