<svg xmlns="http://www.w3.org/2000/svg" width="14" height="14" viewBox="0 0 14 14" fill="none">
  <path d="M14 4.5V1.5H11V2.5H6V1C5.9996 0.734905 5.89412 0.480782 5.70667 0.293331C5.51922 0.105881 5.26509 0.00039675 5 0H1C0.734905 0.00039675 0.480782 0.105881 0.293331 0.293331C0.105881 0.480782 0.00039675 0.734905 0 1V5C0.00039675 5.26509 0.105881 5.51922 0.293331 5.70667C0.480782 5.89412 0.734905 5.9996 1 6H5C5.26509 5.9996 5.51922 5.89412 5.70667 5.70667C5.89412 5.51922 5.9996 5.26509 6 5V3.5C6.3977 3.5004 6.779 3.65856 7.06022 3.93978C7.34144 4.221 7.4996 4.6023 7.5 5V9.5H4.5V8.5H1.5V11.5H4.5V10.5H7.5V11.5C7.5004 11.7651 7.60588 12.0192 7.79333 12.2067C7.98078 12.3941 8.23491 12.4996 8.5 12.5H11V13.5H14V10.5H11V11.5H8.5V8H11V9H14V6H11V7H8.5V5C8.49823 4.45734 8.31816 3.93029 7.9875 3.5H11V4.5H14ZM1 5V1H5V5H1ZM3.5 10.5H2.5V9.5H3.5V10.5ZM12 11.5H13V12.5H12V11.5ZM12 7H13V8H12V7ZM12 2.5H13V3.5H12V2.5Z" fill="black"/>
</svg>