<svg xmlns="http://www.w3.org/2000/svg" width="11" height="12" viewBox="0 0 11 12" fill="none">
  <path d="M1.37643 3.32665C1.37643 2.44437 1.73852 1.59822 2.38304 0.974353C3.02756 0.350485 3.90172 0 4.81321 0C5.7247 0 6.59886 0.350485 7.24339 0.974353C7.88791 1.59822 8.25 2.44437 8.25 3.32665C8.25 3.44429 8.20172 3.55711 8.11578 3.64029C8.02985 3.72347 7.91329 3.7702 7.79176 3.7702C7.67023 3.7702 7.55367 3.72347 7.46774 3.64029C7.3818 3.55711 7.33352 3.44429 7.33352 3.32665C7.33352 2.67964 7.06799 2.05913 6.59534 1.60163C6.12269 1.14413 5.48164 0.887106 4.81321 0.887106C4.14478 0.887106 3.50373 1.14413 3.03108 1.60163C2.55843 2.05913 2.2929 2.67964 2.2929 3.32665C2.2929 3.44429 2.24462 3.55711 2.15869 3.64029C2.07275 3.72347 1.9562 3.7702 1.83466 3.7702C1.71313 3.7702 1.59658 3.72347 1.51064 3.64029C1.4247 3.55711 1.37643 3.44429 1.37643 3.32665ZM9.39559 5.76619C9.12828 5.76591 8.86517 5.83053 8.63034 5.95415C8.56016 5.74396 8.44446 5.55068 8.29095 5.38723C8.13745 5.22379 7.94967 5.09393 7.74017 5.00634C7.53067 4.91875 7.30428 4.87544 7.07611 4.87931C6.84794 4.88318 6.62324 4.93414 6.41705 5.02878V3.32665C6.41705 2.91492 6.24807 2.52005 5.94729 2.22891C5.64652 1.93777 5.23858 1.77421 4.81321 1.77421C4.38785 1.77421 3.97991 1.93777 3.67913 2.22891C3.37835 2.52005 3.20938 2.91492 3.20938 3.32665V7.76218L2.99057 7.42231C2.7766 7.06638 2.42532 6.80731 2.014 6.70208C1.60269 6.59686 1.16504 6.6541 0.797328 6.86121C0.429616 7.06833 0.161966 7.40835 0.0532566 7.80648C-0.0554528 8.20462 0.00368343 8.62824 0.217656 8.98417L1.8971 11.7564C1.92527 11.8104 1.96454 11.8582 2.01252 11.897C2.06049 11.9357 2.11615 11.9646 2.17607 11.9818C2.23598 11.9989 2.2989 12.0041 2.36094 11.9968C2.42298 11.9896 2.48283 11.9701 2.53683 11.9397C2.59082 11.9093 2.63781 11.8684 2.6749 11.8198C2.712 11.7711 2.73842 11.7156 2.75254 11.6567C2.76665 11.5977 2.76817 11.5366 2.757 11.4771C2.74582 11.4176 2.72219 11.361 2.68756 11.3106L1.00984 8.5384C0.962733 8.46267 0.931693 8.37862 0.918527 8.29115C0.905361 8.20368 0.910334 8.11454 0.933156 8.02896C0.955977 7.94337 0.99619 7.86304 1.05144 7.79266C1.1067 7.72228 1.17589 7.66327 1.25497 7.61907C1.33405 7.57486 1.42144 7.54635 1.51203 7.53521C1.60262 7.52406 1.6946 7.5305 1.78259 7.55415C1.87058 7.57779 1.95282 7.61818 2.02451 7.67293C2.0962 7.72769 2.15589 7.79573 2.20011 7.87307L2.20813 7.88582L3.27811 9.54915C3.33065 9.6312 3.4094 9.69442 3.50242 9.72922C3.59545 9.76402 3.69766 9.76849 3.79354 9.74197C3.88943 9.71544 3.97376 9.65936 4.03374 9.58223C4.09371 9.50511 4.12605 9.41115 4.12585 9.31462V3.32665C4.12585 3.15019 4.19827 2.98096 4.32718 2.85619C4.45608 2.73142 4.63091 2.66132 4.81321 2.66132C4.99551 2.66132 5.17034 2.73142 5.29925 2.85619C5.42815 2.98096 5.50057 3.15019 5.50057 3.32665V7.09685C5.50057 7.21449 5.54885 7.32731 5.63478 7.41049C5.72072 7.49367 5.83728 7.5404 5.95881 7.5404C6.08034 7.5404 6.1969 7.49367 6.28283 7.41049C6.36877 7.32731 6.41705 7.21449 6.41705 7.09685V6.43152C6.41705 6.25506 6.48946 6.08584 6.61837 5.96106C6.74727 5.83629 6.9221 5.76619 7.1044 5.76619C7.2867 5.76619 7.46153 5.83629 7.59044 5.96106C7.71934 6.08584 7.79176 6.25506 7.79176 6.43152V7.5404C7.79176 7.65804 7.84004 7.77086 7.92597 7.85404C8.01191 7.93723 8.12847 7.98396 8.25 7.98396C8.37153 7.98396 8.48809 7.93723 8.57402 7.85404C8.65996 7.77086 8.70824 7.65804 8.70824 7.5404V7.31863C8.70824 7.14217 8.78065 6.97294 8.90956 6.84817C9.03846 6.72339 9.2133 6.6533 9.39559 6.6533C9.57789 6.6533 9.75272 6.72339 9.88163 6.84817C10.0105 6.97294 10.083 7.14217 10.083 7.31863V9.31462C10.083 10.5128 9.67626 11.3272 9.67283 11.3339C9.61854 11.4391 9.60965 11.5609 9.6481 11.6724C9.68656 11.784 9.76921 11.8762 9.87789 11.9288C9.94146 11.9599 10.0117 11.9761 10.083 11.9759C10.1681 11.976 10.2515 11.9531 10.324 11.9098C10.3964 11.8665 10.455 11.8046 10.4931 11.7309C10.5143 11.6904 11 10.7329 11 9.31462V7.31863C11 7.11471 10.9585 6.91279 10.8779 6.72441C10.7972 6.53602 10.679 6.36486 10.53 6.22069C10.3811 6.07653 10.2042 5.96219 10.0095 5.8842C9.81488 5.80622 9.60626 5.76612 9.39559 5.76619Z" fill="black"/>
</svg>