<svg xmlns="http://www.w3.org/2000/svg" width="16" height="25" viewBox="0 0 16 25" fill="none">
  <path d="M0.695646 1.42858C0.695646 0.639594 1.31855 0 2.08695 0H4.86955C5.63795 0 6.26086 0.639594 6.26086 1.42858V3.57142C6.26086 4.36041 6.88375 5 7.65222 5H9.73913C10.5075 5 11.1305 5.63959 11.1305 6.42858V8.57142C11.1305 9.36041 11.7533 10 12.5218 10H14.6087C15.377 10 16 10.6396 16 11.4286V14.2858C16 15.0747 15.377 15.7142 14.6087 15.7142H11.826C11.0577 15.7142 10.4347 16.3539 10.4347 17.1428V18.5714C10.4347 19.3605 9.81187 20 9.04339 20H6.9565C6.1881 20 5.5652 20.6395 5.5652 21.4286V23.5714C5.5652 24.3605 4.94229 25 4.1739 25H1.39131C0.622907 25 0 24.3605 0 23.5714V20.7142C0 19.9253 0.622907 19.2858 1.39131 19.2858H3.47824C4.24664 19.2858 4.86955 18.6461 4.86955 17.8572V15.7142C4.86955 14.9253 5.49246 14.2858 6.26086 14.2858H9.04339C9.81187 14.2858 10.4347 13.6461 10.4347 12.8572V12.1429C10.4347 11.3539 9.81187 10.7143 9.04339 10.7143H6.9565C6.1881 10.7143 5.5652 10.0747 5.5652 9.28572V7.14286C5.5652 6.35388 4.94229 5.71428 4.1739 5.71428H2.08695C1.31855 5.71428 0.695646 5.07469 0.695646 4.28572V1.42858Z" fill="#E6FF2B"/>
</svg>
