<svg xmlns="http://www.w3.org/2000/svg" width="6" height="9" viewBox="0 0 6 9" fill="none">
  <path fill-rule="evenodd" clip-rule="evenodd" d="M2.79126 5.03416C2.79126 4.93877 2.82424 4.84632 2.8846 4.77247C2.94497 4.69861 3.02901 4.6479 3.12249 4.62892C3.48121 4.55593 3.88335 4.41864 4.23566 4.1939C4.75152 3.86454 5.16896 3.34082 5.16896 2.55225C5.16896 1.84556 4.9008 1.31874 4.48605 0.964568C4.07357 0.612669 3.5238 0.437546 2.96597 0.415836C2.43378 0.394954 1.84597 0.520869 1.36609 0.795855C0.891583 1.06774 0.538443 1.47402 0.416043 2.0213C0.41307 2.03455 0.412735 2.04826 0.415059 2.06164C0.417383 2.07502 0.422319 2.08781 0.429586 2.09928C0.436853 2.11075 0.446308 2.12068 0.457412 2.12849C0.468515 2.13631 0.48105 2.14187 0.4943 2.14484C0.50755 2.14781 0.521256 2.14815 0.534635 2.14582C0.548014 2.1435 0.560805 2.13856 0.572276 2.1313C0.583748 2.12403 0.593676 2.11457 0.601493 2.10347C0.60931 2.09237 0.614864 2.07983 0.617837 2.06658C0.828729 1.12418 1.89601 0.580621 2.9577 0.622386C3.48059 0.642855 3.98239 0.806813 4.35166 1.12191C4.71844 1.43473 4.96221 1.90324 4.96221 2.55225C4.96221 3.25274 4.59707 3.71795 4.12443 4.0196C3.6493 4.32271 3.07287 4.45483 2.68065 4.48212C2.65454 4.48395 2.6301 4.49562 2.61225 4.51477C2.59441 4.53391 2.58449 4.55912 2.58451 4.58529V5.47889C2.58451 5.50631 2.5954 5.5326 2.61478 5.55199C2.63417 5.57138 2.66047 5.58227 2.68788 5.58227C2.7153 5.58227 2.7416 5.57138 2.76098 5.55199C2.78037 5.5326 2.79126 5.50631 2.79126 5.47889V5.03416ZM2.79126 6.92619C2.68159 6.92619 2.57641 6.96975 2.49886 7.0473C2.42132 7.12485 2.37775 7.23003 2.37775 7.3397C2.37775 7.44937 2.42132 7.55455 2.49886 7.6321C2.57641 7.70965 2.68159 7.75321 2.79126 7.75321C2.90093 7.75321 3.00611 7.70965 3.08366 7.6321C3.16121 7.55455 3.20478 7.44937 3.20478 7.3397C3.20478 7.23003 3.16121 7.12485 3.08366 7.0473C3.00611 6.96975 2.90093 6.92619 2.79126 6.92619ZM4.75442 0.650091C5.26573 1.08635 5.58248 1.7306 5.58248 2.55225C5.58248 3.51615 5.06104 4.15772 4.45813 4.54249C4.05289 4.80094 3.59989 4.95394 3.20478 5.03416V5.47889C3.20478 5.61598 3.15032 5.74745 3.05338 5.84439C2.95645 5.94133 2.82497 5.99578 2.68788 5.99578C2.5508 5.99578 2.41932 5.94133 2.32239 5.84439C2.22545 5.74745 2.17099 5.61598 2.17099 5.47889V4.58529C2.17099 4.45443 2.22062 4.32843 2.30988 4.23273C2.39913 4.13703 2.52136 4.07875 2.65191 4.06964C2.99471 4.04566 3.49961 3.9276 3.90196 3.67101C4.2857 3.42601 4.54869 3.07927 4.54869 2.55225C4.54869 2.01861 4.35372 1.66733 4.08349 1.43639C3.79982 1.19448 3.39354 1.05327 2.94157 1.03549C1.98471 0.998063 1.1707 1.4889 1.02143 2.15673C1.00661 2.22298 0.9789 2.28566 0.939863 2.3412C0.900827 2.39674 0.851233 2.44405 0.793914 2.48042C0.736595 2.51679 0.672673 2.54152 0.605798 2.55319C0.538923 2.56486 0.470404 2.56324 0.404154 2.54843C0.337904 2.53362 0.27522 2.5059 0.219681 2.46686C0.164142 2.42783 0.116835 2.37823 0.0804627 2.32092C0.04409 2.2636 0.0193632 2.19967 0.0076942 2.1328C-0.0039748 2.06592 -0.00235734 1.99741 0.0124539 1.93116C0.31804 0.565941 1.77816 -0.0446108 2.9821 0.00252967C3.61043 0.0273405 4.25613 0.224793 4.75442 0.650091ZM1.96424 7.3397C1.96424 7.12036 2.05137 6.91 2.20647 6.75491C2.36156 6.59981 2.57192 6.51268 2.79126 6.51268C3.0106 6.51268 3.22096 6.59981 3.37606 6.75491C3.53116 6.91 3.61829 7.12036 3.61829 7.3397C3.61829 7.55904 3.53116 7.7694 3.37606 7.9245C3.22096 8.07959 3.0106 8.16673 2.79126 8.16673C2.57192 8.16673 2.36156 8.07959 2.20647 7.9245C2.05137 7.7694 1.96424 7.55904 1.96424 7.3397Z" fill="#E6FF2B"/>
</svg>
