<svg xmlns="http://www.w3.org/2000/svg" width="27" height="23" viewBox="0 0 27 23" fill="none">
  <path d="M9.70588 0C10.4856 0 11.1176 0.636136 11.1176 1.42085V8.25869C11.1176 8.65104 11.4337 8.96911 11.8235 8.96911C12.6032 8.96911 13.2353 9.60525 13.2353 10.39V12.6988C13.2353 13.4836 12.6032 14.1197 11.8235 14.1197H11.1383C10.8099 14.1197 10.5882 14.4996 10.5882 14.8301V17.139C10.5882 17.9237 9.95617 18.5598 9.17647 18.5598H6.88235C6.87656 18.5598 6.87291 18.5659 6.87577 18.5709C6.99207 18.7774 7.05882 19.0159 7.05882 19.2703V21.5792C7.05882 22.3639 6.42675 23 5.64706 23H3.35294C2.57325 23 1.94118 22.3639 1.94118 21.5792V19.2703C1.94118 18.4856 2.57325 17.8494 3.35294 17.8494H4.92053C5.24891 17.8494 5.47059 17.4695 5.47059 17.139V14.8301C5.47059 14.0454 6.10266 13.4093 6.88235 13.4093H7.56758C7.89597 13.4093 8.11765 13.0293 8.11765 12.6988V12.2548C8.11765 11.6663 7.6436 11.1892 7.05882 11.1892H1.41176C0.632069 11.1892 4.40564e-08 10.5531 0 9.76834V1.42085C0 0.636136 0.632069 4.43392e-08 1.41176 0H9.70588Z" fill="#004D43"/>
  <path d="M23.4706 0C24.2503 0 24.8824 0.636136 24.8824 1.42085V8.25869C24.8824 8.65104 25.1984 8.96911 25.5882 8.96911C26.3679 8.96911 27 9.60525 27 10.39V12.6988C27 13.4836 26.3679 14.1197 25.5882 14.1197H24.903C24.5746 14.1197 24.3529 14.4996 24.3529 14.8301V17.139C24.3529 17.9237 23.7209 18.5598 22.9412 18.5598H20.6471C20.6413 18.5598 20.6376 18.5659 20.6405 18.5709C20.7568 18.7774 20.8235 19.0159 20.8235 19.2703V21.5792C20.8235 22.3639 20.1915 23 19.4118 23H17.1176C16.338 23 15.7059 22.3639 15.7059 21.5792V19.2703C15.7059 18.4856 16.338 17.8494 17.1176 17.8494H18.6852C19.0136 17.8494 19.2353 17.4695 19.2353 17.139V14.8301C19.2353 14.0454 19.8674 13.4093 20.6471 13.4093H21.3323C21.6607 13.4093 21.8824 13.0293 21.8824 12.6988V12.2548C21.8824 11.6663 21.4083 11.1892 20.8235 11.1892H15.1765C14.3968 11.1892 13.7647 10.5531 13.7647 9.76834V1.42085C13.7647 0.636136 14.3968 4.43392e-08 15.1765 0H23.4706Z" fill="#004D43"/>
</svg>
