<svg width="11" height="16" viewBox="0 0 11 16" fill="none" xmlns="http://www.w3.org/2000/svg">
  <path
    d="M0.45714 0.91429C0.45714 0.40934 0.86648 0 1.37143 0H3.2C3.70495 0 4.11429 0.40934 4.11429 0.91429V2.28571C4.11429 2.79066 4.52362 3.2 5.02862 3.2H6.40002C6.90492 3.2 7.31432 3.60934 7.31432 4.11429V5.48571C7.31432 5.99066 7.72362 6.4 8.22862 6.4H9.60002C10.1049 6.4 10.5143 6.80934 10.5143 7.31429V9.1429C10.5143 9.6478 10.1049 10.0571 9.60002 10.0571H7.77142C7.26652 10.0571 6.85712 10.4665 6.85712 10.9714V11.8857C6.85712 12.3907 6.44782 12.8 5.94282 12.8H4.57143C4.06648 12.8 3.65714 13.2093 3.65714 13.7143V15.0857C3.65714 15.5907 3.2478 16 2.74286 16H0.91429C0.40934 16 0 15.5907 0 15.0857V13.2571C0 12.7522 0.40934 12.3429 0.91429 12.3429H2.28571C2.79066 12.3429 3.2 11.9335 3.2 11.4286V10.0571C3.2 9.5522 3.60934 9.1429 4.11429 9.1429H5.94282C6.44782 9.1429 6.85712 8.7335 6.85712 8.2286V7.77143C6.85712 7.26648 6.44782 6.85714 5.94282 6.85714H4.57143C4.06648 6.85714 3.65714 6.4478 3.65714 5.94286V4.57143C3.65714 4.06648 3.2478 3.65714 2.74286 3.65714H1.37143C0.86648 3.65714 0.45714 3.2478 0.45714 2.74286V0.91429Z"
    fill="white"
  />
</svg>
