<svg xmlns="http://www.w3.org/2000/svg" width="20" height="20" viewBox="0 0 20 20" fill="none">
  <path d="M1.25 0.5H18.75C18.9489 0.5 19.1396 0.579074 19.2803 0.719727C19.4209 0.860379 19.5 1.05109 19.5 1.25V18.75C19.5 18.9489 19.4209 19.1396 19.2803 19.2803C19.1396 19.4209 18.9489 19.5 18.75 19.5H1.25C0.836142 19.5 0.5 19.1639 0.5 18.75V1.25C0.5 1.05109 0.579074 0.860379 0.719727 0.719727C0.860379 0.579074 1.05109 0.5 1.25 0.5ZM12.626 5.76074C12.5333 5.77457 12.4431 5.80172 12.3584 5.8418L12.2363 5.91113C12.1186 5.98981 12.0205 6.09345 11.9482 6.21387L11.8848 6.33984C11.8125 6.51428 11.7933 6.70643 11.8301 6.8916C11.8669 7.07668 11.9584 7.24641 12.0918 7.37988L12.8711 8.15918L10.833 10.1973L9.27734 8.63965H9.27637C9.15278 8.51595 9.00622 8.41766 8.84473 8.35059C8.68274 8.28337 8.50839 8.24805 8.33301 8.24805C8.15774 8.24809 7.98415 8.28341 7.82227 8.35059C7.66052 8.41772 7.51338 8.51572 7.38965 8.63965L3.22266 12.8066C2.97261 13.0569 2.83203 13.3963 2.83203 13.75L2.83887 13.8818C2.86917 14.1872 3.00387 14.4744 3.22266 14.6934C3.4729 14.9436 3.81309 15.084 4.16699 15.084C4.52077 15.0839 4.86018 14.9435 5.11035 14.6934L8.33301 11.4697L9.88965 13.0244C10.0135 13.1486 10.1603 13.2472 10.3223 13.3145C10.4842 13.3816 10.6577 13.416 10.833 13.416C11.0084 13.416 11.1827 13.3817 11.3447 13.3145C11.5064 13.2473 11.6527 13.1483 11.7764 13.0244L11.7773 13.0254L14.7559 10.0449L15.54 10.8271C15.6734 10.9603 15.8435 11.051 16.0283 11.0879C16.2131 11.1247 16.4049 11.106 16.5791 11.0342C16.7533 10.9623 16.9027 10.8409 17.0078 10.6846C17.113 10.5281 17.1692 10.3438 17.1699 10.1553V6.70508C17.1699 6.17608 16.7398 5.75 16.2148 5.75H12.7666L12.626 5.76074Z" fill="black" stroke="black"/>
</svg>
