<svg width="221" height="418" viewBox="0 0 221 418" fill="none" xmlns="http://www.w3.org/2000/svg">
<g clip-path="url(#clip0_2526_1629)">
<g clip-path="url(#clip1_2526_1629)">
<g clip-path="url(#clip2_2526_1629)">
<path d="M45.1975 31.1137C46.8949 29.2466 49.301 28.1821 51.8245 28.1821H190.855C195.802 28.1821 199.812 32.1919 199.812 37.1382V162.446C199.812 164.939 198.773 167.32 196.943 169.015L174.559 189.76C172.905 191.295 170.73 192.148 168.472 192.148H29.6456C24.6992 192.148 20.6895 188.138 20.6895 183.192V61.5349C20.6895 59.3071 21.5199 57.159 23.0186 55.5105L45.1975 31.1137Z" stroke="#BEBEBE" stroke-width="1.37786"/>
</g>
</g>
</g>
<g clip-path="url(#clip3_2526_1629)">
<g clip-path="url(#clip4_2526_1629)">
<path d="M103.655 167.256L119.226 157.094C120.478 156.277 121.1 154.948 121.1 153.621L121.1 123.741C121.1 122.374 120.439 121.009 119.126 120.205L98.5447 107.598V137.478L100.733 138.819C97.9202 139.811 94.8572 139.849 92.0215 138.931L94.1965 137.529L94.1969 107.649L69.9788 123.264C69.5577 123.536 69.3477 123.981 69.3477 124.426V154.306C69.3478 154.756 69.5632 155.207 69.9929 155.477L88.9725 167.387C93.4779 170.214 99.1999 170.163 103.655 167.256Z" fill="#E4E4E4"/>
<path d="M94.1969 107.649C95.5178 106.797 97.2047 106.778 98.5447 107.598M94.1969 107.649L98.5447 107.598M94.1969 107.649L94.1965 137.529L92.0215 138.931C94.8572 139.85 97.9202 139.811 100.733 138.819L98.5447 137.478V107.598M94.1969 107.649L69.9788 123.264C69.5577 123.536 69.3477 123.981 69.3477 124.426V154.306C69.3478 154.756 69.5632 155.207 69.9929 155.477L88.9725 167.387C93.4779 170.214 99.1999 170.163 103.655 167.256L119.226 157.094C120.478 156.277 121.1 154.949 121.1 153.621M98.5447 107.598L119.126 120.205M121.1 153.621V153.591M121.1 153.621L121.1 123.741C121.1 122.375 120.439 121.009 119.126 120.205M119.126 120.205V127.279" stroke="#1B1B1B" stroke-width="0.707557"/>
<path d="M94.1966 107.649C95.5175 106.797 97.2044 106.778 98.5444 107.598L119.126 120.205C121.714 121.79 121.767 125.556 119.225 127.214L103.655 137.376C99.1995 140.283 93.478 140.334 88.9726 137.507L69.9929 125.597C69.1388 125.061 69.1311 123.811 69.9788 123.264L94.1966 107.649Z" fill="#F6F6F6" stroke="#1B1B1B" stroke-width="0.707557"/>
<path d="M69.4385 56.1002C74.0134 53.1475 79.8564 53.0796 84.4977 55.9251L100.575 65.7821C101.939 66.6184 102.626 68.0385 102.626 69.4599L102.626 100.592C102.626 101.973 101.979 103.355 100.678 104.205L79.1895 118.241C78.6687 118.581 78.0923 118.796 77.5014 118.885C77.1967 118.931 76.8882 118.944 76.5814 118.923C75.8959 118.876 75.219 118.663 74.6126 118.282L49.5219 102.522C49.3047 102.386 49.1402 102.205 49.0285 102.001C48.9107 101.786 48.8517 101.545 48.8516 101.305V70.1722C48.8516 69.7093 49.0698 69.2461 49.5073 68.9637L69.4385 56.1002Z" fill="#E4E4E4"/>
<path d="M100.575 65.7821L84.4977 55.9251C79.8564 53.0796 74.0134 53.1475 69.4385 56.1002L49.5073 68.9637C49.0698 69.2461 48.8516 69.7093 48.8516 70.1722V101.305C48.8517 101.545 48.9107 101.786 49.0285 102.001C49.1402 102.205 49.3047 102.386 49.5219 102.522L74.6126 118.282C75.219 118.663 75.8959 118.876 76.5814 118.923C76.8882 118.944 77.1967 118.931 77.5014 118.885C78.0923 118.796 78.6687 118.581 79.1895 118.241L100.678 104.205C101.979 103.355 102.626 101.973 102.626 100.592L102.626 69.4599C102.626 68.0385 101.939 66.6184 100.575 65.7821ZM100.575 65.7821V73.1397" stroke="#1B1B1B" stroke-width="0.707557"/>
<path d="M69.4385 56.1002C74.0135 53.1475 79.8564 53.0796 84.4977 55.9251L100.575 65.7819C103.264 67.4305 103.319 71.3469 100.678 73.072L79.1894 87.1085C77.8006 88.0156 76.0172 88.0316 74.6127 87.1494L49.5221 71.3899C48.6344 70.8323 48.6267 69.5321 49.5073 68.9637L69.4385 56.1002Z" fill="#F6F6F6" stroke="#1B1B1B" stroke-width="0.707557"/>
<path d="M76.8714 87.9902C76.8714 99.5579 76.8711 107.147 76.8711 118.715" stroke="#1B1B1B" stroke-width="0.707557"/>
<path d="M166.673 80.0151L147.597 67.2764C146.056 66.2471 144.058 66.2408 142.51 67.2601L117.789 83.5421C117.262 83.8895 117 84.4523 117 85.0145V96.6152L117 116.079C118.737 117.239 127.925 123.079 131.051 124.88L142.625 132.027C143.398 132.504 144.275 132.733 145.147 132.713C145.749 132.699 146.348 132.567 146.909 132.318C147.106 132.23 147.298 132.128 147.484 132.012L166.53 120.087C168.356 118.944 169.275 117.025 169.274 115.104V115.074V84.9006C169.274 83.0387 168.41 81.175 166.673 80.0151Z" fill="#E4E4E4"/>
<path d="M142.51 67.2601C144.058 66.2408 146.056 66.2471 147.597 67.2764L166.673 80.0151C168.41 81.175 169.274 83.0387 169.274 84.9006V115.074V115.104C169.275 117.025 168.356 118.944 166.53 120.087L147.484 132.012C147.298 132.128 147.106 132.23 146.909 132.318C146.348 132.567 145.749 132.699 145.147 132.713C144.275 132.733 143.398 132.504 142.625 132.027L131.051 124.88L118.753 118.052C117.671 117.451 117 116.311 117 115.074L117 96.6152V85.0145C117 84.4523 117.262 83.8895 117.789 83.5421M142.51 67.2601L117.789 83.5421M142.51 67.2601V97.463M117.789 83.5421V86.4874M147.454 97.3874C147.502 97.417 147.55 97.4477 147.597 97.4793" stroke="#1B1B1B" stroke-width="0.707557"/>
<path d="M142.51 67.2601C144.058 66.2408 146.056 66.2471 147.598 67.2764L166.673 80.0151C170.203 82.3719 170.126 87.6328 166.53 89.8842L147.484 101.809C145.997 102.74 144.118 102.746 142.625 101.824L117.832 86.5147C116.741 85.8409 116.718 84.2475 117.79 83.5421L142.51 67.2601Z" fill="#F6F6F6" stroke="#1B1B1B" stroke-width="0.707557"/>
<path d="M145.004 102.592C145.004 114.16 145.004 121.195 145.004 132.762" stroke="#1B1B1B" stroke-width="0.707557"/>
</g>
</g>
<g clip-path="url(#clip5_2526_1629)">
<g clip-path="url(#clip6_2526_1629)">
<g clip-path="url(#clip7_2526_1629)">
<path d="M46.1975 215.114C47.8949 213.247 50.301 212.182 52.8245 212.182H191.855C196.802 212.182 200.812 216.192 200.812 221.138V346.446C200.812 348.939 199.773 351.32 197.943 353.015L175.559 373.76C173.905 375.295 171.73 376.148 169.472 376.148H30.6456C25.6992 376.148 21.6895 372.138 21.6895 367.192V245.535C21.6895 243.307 22.5199 241.159 24.0186 239.511L46.1975 215.114Z" stroke="#BEBEBE" stroke-width="1.37786"/>
</g>
</g>
</g>
<g clip-path="url(#clip8_2526_1629)">
<g clip-path="url(#clip9_2526_1629)">
<path d="M104.655 351.256L120.226 341.094C121.478 340.277 122.1 338.948 122.1 337.621L122.1 307.741C122.1 306.374 121.439 305.009 120.126 304.205L99.5447 291.598V321.478L101.733 322.819C98.9202 323.811 95.8572 323.849 93.0215 322.931L95.1965 321.529L95.1969 291.649L70.9788 307.264C70.5577 307.536 70.3477 307.981 70.3477 308.426V338.306C70.3478 338.756 70.5632 339.207 70.9929 339.477L89.9725 351.387C94.4779 354.214 100.2 354.163 104.655 351.256Z" fill="#E4E4E4"/>
<path d="M95.1969 291.649C96.5178 290.797 98.2047 290.778 99.5447 291.598M95.1969 291.649L99.5447 291.598M95.1969 291.649L95.1965 321.529L93.0215 322.931C95.8572 323.85 98.9202 323.811 101.733 322.819L99.5447 321.478V291.598M95.1969 291.649L70.9788 307.264C70.5577 307.536 70.3477 307.981 70.3477 308.426V338.306C70.3478 338.756 70.5632 339.207 70.9929 339.477L89.9725 351.387C94.4779 354.214 100.2 354.163 104.655 351.256L120.226 341.094C121.478 340.277 122.1 338.949 122.1 337.621M99.5447 291.598L120.126 304.205M122.1 337.621V337.591M122.1 337.621L122.1 307.741C122.1 306.375 121.439 305.009 120.126 304.205M120.126 304.205V311.279" stroke="#1B1B1B" stroke-width="0.707557"/>
<path d="M95.1966 291.649C96.5175 290.797 98.2044 290.778 99.5444 291.598L120.126 304.205C122.714 305.79 122.767 309.556 120.225 311.214L104.655 321.376C100.199 324.283 94.478 324.334 89.9726 321.507L70.9929 309.597C70.1388 309.061 70.1311 307.811 70.9788 307.264L95.1966 291.649Z" fill="#F6F6F6" stroke="#1B1B1B" stroke-width="0.707557"/>
<path d="M90.4385 240.1C95.0134 237.148 100.856 237.08 105.498 239.925L121.575 249.782C122.939 250.618 123.626 252.038 123.626 253.46L123.626 284.592C123.626 285.973 122.979 287.355 121.678 288.205L100.189 302.241C99.6687 302.581 99.0923 302.796 98.5014 302.885C98.1967 302.931 97.8882 302.944 97.5814 302.923C96.8959 302.876 96.219 302.663 95.6126 302.282L70.5219 286.522C70.3047 286.386 70.1402 286.205 70.0285 286.001C69.9107 285.786 69.8517 285.545 69.8516 285.305V254.172C69.8516 253.709 70.0698 253.246 70.5073 252.964L90.4385 240.1Z" fill="#E4E4E4"/>
<path d="M121.575 249.782L105.498 239.925C100.856 237.08 95.0134 237.148 90.4385 240.1L70.5073 252.964C70.0698 253.246 69.8516 253.709 69.8516 254.172V285.305C69.8517 285.545 69.9107 285.786 70.0285 286.001C70.1402 286.205 70.3047 286.386 70.5219 286.522L95.6126 302.282C96.219 302.663 96.8959 302.876 97.5814 302.923C97.8882 302.944 98.1967 302.931 98.5014 302.885C99.0923 302.796 99.6687 302.581 100.189 302.241L121.678 288.205C122.979 287.355 123.626 285.973 123.626 284.592L123.626 253.46C123.626 252.038 122.939 250.618 121.575 249.782ZM121.575 249.782V257.14" stroke="#1B1B1B" stroke-width="0.707557"/>
<path d="M90.4385 240.1C95.0135 237.148 100.856 237.08 105.498 239.925L121.575 249.782C124.264 251.431 124.319 255.347 121.678 257.072L100.189 271.109C98.8006 272.016 97.0172 272.032 95.6127 271.149L70.5221 255.39C69.6344 254.832 69.6267 253.532 70.5073 252.964L90.4385 240.1Z" fill="#F6F6F6" stroke="#1B1B1B" stroke-width="0.707557"/>
<path d="M97.8714 271.99C97.8714 283.558 97.8711 291.147 97.8711 302.715" stroke="#1B1B1B" stroke-width="0.707557"/>
<path d="M157.747 280.436L138.672 267.698C137.131 266.669 135.132 266.662 133.584 267.681L108.864 283.963C108.336 284.311 108.074 284.874 108.074 285.436V297.037L119.524 304.683C121.261 305.843 122.125 307.706 122.125 309.568V325.301L133.7 332.448C134.473 332.926 135.349 333.154 136.221 333.134C136.823 333.121 137.422 332.989 137.984 332.739C138.18 332.651 138.372 332.55 138.558 332.433L157.605 320.509C159.431 319.365 160.349 317.446 160.349 315.525V315.495V285.322C160.348 283.46 159.484 281.596 157.747 280.436Z" fill="#E4E4E4"/>
<path d="M133.584 267.681C135.132 266.662 137.131 266.669 138.672 267.698L157.747 280.436C159.484 281.596 160.348 283.46 160.349 285.322V315.495V315.525C160.349 317.446 159.431 319.365 157.605 320.509L138.558 332.433C138.372 332.55 138.18 332.651 137.984 332.739C137.422 332.989 136.823 333.121 136.221 333.134C135.349 333.154 134.473 332.926 133.7 332.448L122.125 325.301V309.568C122.125 307.706 121.261 305.843 119.524 304.683L108.074 297.037V285.436C108.074 284.874 108.336 284.311 108.864 283.963M133.584 267.681L108.864 283.963M133.584 267.681V297.884M108.864 283.963V286.909M138.529 297.809C138.577 297.838 138.624 297.869 138.672 297.901" stroke="#1B1B1B" stroke-width="0.707557"/>
<path d="M133.585 267.681C135.132 266.662 137.131 266.669 138.672 267.698L157.747 280.436C161.277 282.793 161.201 288.054 157.605 290.306L138.558 302.23C137.071 303.161 135.192 303.167 133.7 302.245L108.907 286.936C107.816 286.262 107.793 284.669 108.864 283.963L133.585 267.681Z" fill="#F6F6F6" stroke="#1B1B1B" stroke-width="0.707557"/>
<path d="M136.078 303.013C136.078 314.581 136.078 321.616 136.078 333.184" stroke="#1B1B1B" stroke-width="0.707557"/>
</g>
</g>
<defs>
<clipPath id="clip0_2526_1629">
<rect width="180.5" height="165.33" fill="white" transform="translate(20 27.5)"/>
</clipPath>
<clipPath id="clip1_2526_1629">
<rect width="180.5" height="165.33" fill="white" transform="translate(20 27.5)"/>
</clipPath>
<clipPath id="clip2_2526_1629">
<rect width="180.5" height="165.344" fill="white" transform="translate(20 27.4932)"/>
</clipPath>
<clipPath id="clip3_2526_1629">
<rect width="124.54" height="124.53" fill="white" transform="translate(47.9805 47.8896)"/>
</clipPath>
<clipPath id="clip4_2526_1629">
<rect width="124.54" height="124.53" fill="white" transform="translate(47.9805 47.8896)"/>
</clipPath>
<clipPath id="clip5_2526_1629">
<rect width="180.5" height="165.33" fill="white" transform="translate(21 211.5)"/>
</clipPath>
<clipPath id="clip6_2526_1629">
<rect width="180.5" height="165.33" fill="white" transform="translate(21 211.5)"/>
</clipPath>
<clipPath id="clip7_2526_1629">
<rect width="180.5" height="165.344" fill="white" transform="translate(21 211.493)"/>
</clipPath>
<clipPath id="clip8_2526_1629">
<rect width="124.54" height="124.53" fill="white" transform="translate(48.9805 231.89)"/>
</clipPath>
<clipPath id="clip9_2526_1629">
<rect width="124.54" height="124.53" fill="white" transform="translate(48.9805 231.89)"/>
</clipPath>
</defs>
</svg>
