<svg width="255" height="49" viewBox="0 0 255 49" fill="none" xmlns="http://www.w3.org/2000/svg">
<path d="M65.5893 21.2685C64.1313 21.2685 63.0466 20.9118 62.335 20.1984C61.6234 19.4851 61.2676 18.3976 61.2676 16.9361C61.2676 15.4746 61.619 14.3872 62.322 13.6739C63.0336 12.9605 64.1227 12.6038 65.5893 12.6038H71.0955C71.0434 11.6904 70.8048 11.0684 70.3796 10.7378C69.9543 10.3985 69.2254 10.2289 68.1927 10.2289H66.6827C65.8149 10.2289 65.1684 10.2898 64.7432 10.4116C64.3179 10.5247 64.0185 10.7335 63.845 11.0379C63.6888 11.4033 63.5282 11.6556 63.3633 11.7948C63.1985 11.934 62.9511 12.0036 62.6214 12.0036C62.2569 12.0036 61.9705 11.9035 61.7622 11.7034C61.554 11.4947 61.4932 11.2206 61.58 10.8813C61.8403 9.89831 62.3827 9.18061 63.2071 8.72824C64.0402 8.26717 65.1987 8.03663 66.6827 8.03663H68.1927C69.9283 8.03663 71.2127 8.45421 72.0458 9.28935C72.8789 10.1245 73.2954 11.412 73.2954 13.1519V20.1723C73.2954 20.9031 72.9309 21.2685 72.202 21.2685C71.473 21.2685 71.1085 20.9031 71.1085 20.1723V19.5851C70.18 20.7073 68.8262 21.2685 67.0472 21.2685H65.5893ZM65.5893 19.0762H67.0472C67.6894 19.0762 68.2925 19.0197 68.8566 18.9066C69.4206 18.7848 69.9023 18.5673 70.3015 18.2541C70.7093 17.9409 70.9784 17.4929 71.1085 16.91V14.7961H65.5893C64.7301 14.7961 64.1574 14.9396 63.871 15.2267C63.5933 15.5138 63.4545 16.0836 63.4545 16.9361C63.4545 17.7974 63.5933 18.3716 63.871 18.6586C64.1574 18.937 64.7301 19.0762 65.5893 19.0762Z" fill="#010101"/>
<path d="M89.1865 8.03663C89.9154 8.03663 90.2799 8.40201 90.2799 9.13276V20.1723C90.2799 20.9031 89.9154 21.2685 89.1865 21.2685C88.4575 21.2685 88.093 20.9031 88.093 20.1723V19.7417C87.1731 20.7595 85.8194 21.2685 84.0317 21.2685H83.3027C81.5758 21.2685 80.2914 20.8509 79.4497 20.0157C78.6166 19.1719 78.2 17.8844 78.2 16.1532V9.13276C78.2 8.40201 78.5645 8.03663 79.2934 8.03663C80.0224 8.03663 80.3869 8.40201 80.3869 9.13276V16.1532C80.3869 17.2841 80.5908 18.054 80.9987 18.4629C81.4152 18.8718 82.1832 19.0762 83.3027 19.0762H84.0317C85.0731 19.0762 85.9799 18.9544 86.7523 18.7108C87.5333 18.4672 87.9802 18.0932 88.093 17.5886V9.13276C88.093 8.40201 88.4575 8.03663 89.1865 8.03663Z" fill="#010101"/>
<path d="M101.269 21.2685C99.5509 21.2685 98.2839 20.8596 97.4682 20.0418C96.6525 19.2241 96.2446 17.9627 96.2446 16.2576V10.2289H94.9689C94.24 10.2289 93.8755 9.86351 93.8755 9.13276C93.8755 8.40201 94.24 8.03663 94.9689 8.03663H96.2446V6.13146C96.2446 5.40071 96.6091 5.03533 97.338 5.03533C98.067 5.03533 98.4315 5.40071 98.4315 6.13146V8.03663H101.425C102.154 8.03663 102.519 8.40201 102.519 9.13276C102.519 9.86351 102.154 10.2289 101.425 10.2289H98.4315V16.2576C98.4315 17.3624 98.6311 18.1106 99.0303 18.502C99.4294 18.8848 100.176 19.0762 101.269 19.0762C101.608 19.0762 101.872 19.1632 102.063 19.3372C102.263 19.5112 102.363 19.7896 102.363 20.1723C102.363 20.9031 101.998 21.2685 101.269 21.2685Z" fill="#010101"/>
<path d="M110.04 21.2685C108.313 21.2685 107.029 20.8509 106.187 20.0157C105.354 19.1806 104.938 17.9018 104.938 16.1793V13.1519C104.938 11.4033 105.354 10.1158 106.187 9.28935C107.029 8.45421 108.313 8.03663 110.04 8.03663H112.175C113.911 8.03663 115.195 8.45421 116.028 9.28935C116.861 10.1245 117.278 11.412 117.278 13.1519V16.1532C117.278 17.8844 116.861 19.1719 116.028 20.0157C115.195 20.8509 113.911 21.2685 112.175 21.2685H110.04ZM107.124 16.1793C107.124 17.3015 107.328 18.0671 107.736 18.4759C108.144 18.8761 108.912 19.0762 110.04 19.0762H112.175C113.312 19.0762 114.08 18.8718 114.479 18.4629C114.887 18.054 115.091 17.2841 115.091 16.1532V13.1519C115.091 12.0123 114.887 11.2424 114.479 10.8422C114.08 10.4333 113.312 10.2289 112.175 10.2289H110.04C109.285 10.2289 108.695 10.3159 108.27 10.4899C107.853 10.6552 107.558 10.9509 107.385 11.3772C107.211 11.7948 107.124 12.3863 107.124 13.1519V16.1793Z" fill="#010101"/>
<path d="M136.512 8.03663C138.152 8.03663 139.328 8.42376 140.039 9.19801C140.76 9.97226 141.12 11.2554 141.12 13.0475V20.1723C141.12 20.9031 140.755 21.2685 140.026 21.2685C139.297 21.2685 138.933 20.9031 138.933 20.1723V13.0475C138.933 12.0558 138.742 11.3381 138.36 10.8944C137.987 10.4507 137.371 10.2289 136.512 10.2289H135.444C134.455 10.2289 133.748 10.4507 133.322 10.8944C132.897 11.3381 132.685 12.0558 132.685 13.0475V20.1723C132.685 20.9031 132.32 21.2685 131.591 21.2685C130.862 21.2685 130.498 20.9031 130.498 20.1723V13.0475C130.498 12.0558 130.307 11.3381 129.925 10.8944C129.552 10.4507 128.936 10.2289 128.077 10.2289H127.009C126.02 10.2289 125.313 10.4507 124.887 10.8944C124.462 11.3381 124.25 12.0558 124.25 13.0475V20.1723C124.25 20.9031 123.885 21.2685 123.156 21.2685C122.427 21.2685 122.063 20.9031 122.063 20.1723V9.13276C122.063 8.40201 122.427 8.03663 123.156 8.03663C123.885 8.03663 124.25 8.40201 124.25 9.13276V9.73302C124.709 9.13276 125.213 8.70214 125.759 8.44116C126.315 8.17147 126.974 8.03663 127.738 8.03663H128.077C129.153 8.03663 129.999 8.18887 130.615 8.49335C131.231 8.78913 131.7 9.27195 132.021 9.94181C132.481 9.25455 132.967 8.76739 133.479 8.4803C133.999 8.18452 134.655 8.03663 135.444 8.03663H136.512Z" fill="#010101"/>
<path d="M149.819 21.2685C148.361 21.2685 147.277 20.9118 146.565 20.1984C145.853 19.4851 145.498 18.3976 145.498 16.9361C145.498 15.4746 145.849 14.3872 146.552 13.6739C147.264 12.9605 148.353 12.6038 149.819 12.6038H155.325C155.273 11.6904 155.035 11.0684 154.61 10.7378C154.184 10.3985 153.455 10.2289 152.423 10.2289H150.913C150.045 10.2289 149.398 10.2898 148.973 10.4116C148.548 10.5247 148.248 10.7335 148.075 11.0379C147.919 11.4033 147.758 11.6556 147.593 11.7948C147.428 11.934 147.181 12.0036 146.851 12.0036C146.487 12.0036 146.2 11.9035 145.992 11.7034C145.784 11.4947 145.723 11.2206 145.81 10.8813C146.07 9.89831 146.613 9.18061 147.437 8.72824C148.27 8.26717 149.429 8.03663 150.913 8.03663H152.423C154.158 8.03663 155.443 8.45421 156.276 9.28935C157.109 10.1245 157.525 11.412 157.525 13.1519V20.1723C157.525 20.9031 157.161 21.2685 156.432 21.2685C155.703 21.2685 155.338 20.9031 155.338 20.1723V19.5851C154.41 20.7073 153.056 21.2685 151.277 21.2685H149.819ZM149.819 19.0762H151.277C151.919 19.0762 152.522 19.0197 153.087 18.9066C153.651 18.7848 154.132 18.5673 154.531 18.2541C154.939 17.9409 155.208 17.4929 155.338 16.91V14.7961H149.819C148.96 14.7961 148.387 14.9396 148.101 15.2267C147.823 15.5138 147.684 16.0836 147.684 16.9361C147.684 17.7974 147.823 18.3716 148.101 18.6586C148.387 18.937 148.96 19.0762 149.819 19.0762Z" fill="#010101"/>
<path d="M168.262 21.2685C166.543 21.2685 165.276 20.8596 164.461 20.0418C163.645 19.2241 163.237 17.9627 163.237 16.2576V10.2289H161.961C161.232 10.2289 160.868 9.86351 160.868 9.13276C160.868 8.40201 161.232 8.03663 161.961 8.03663H163.237V6.13146C163.237 5.40071 163.601 5.03533 164.33 5.03533C165.059 5.03533 165.424 5.40071 165.424 6.13146V8.03663H168.418C169.147 8.03663 169.511 8.40201 169.511 9.13276C169.511 9.86351 169.147 10.2289 168.418 10.2289H165.424V16.2576C165.424 17.3624 165.623 18.1106 166.023 18.502C166.422 18.8848 167.168 19.0762 168.262 19.0762C168.6 19.0762 168.865 19.1632 169.056 19.3372C169.255 19.5112 169.355 19.7896 169.355 20.1723C169.355 20.9031 168.991 21.2685 168.262 21.2685Z" fill="#010101"/>
<path d="M174.326 5.89657C173.502 5.89657 173.09 5.479 173.09 4.64386V3.87396C173.09 3.05621 173.502 2.64734 174.326 2.64734H175.081C175.871 2.64734 176.266 3.05621 176.266 3.87396V4.64386C176.266 5.479 175.871 5.89657 175.081 5.89657H174.326ZM174.691 21.2685C173.962 21.2685 173.597 20.9031 173.597 20.1723V9.13276C173.597 8.40201 173.962 8.03663 174.691 8.03663C175.42 8.03663 175.784 8.40201 175.784 9.13276V20.1723C175.784 20.9031 175.42 21.2685 174.691 21.2685Z" fill="#010101"/>
<path d="M185.677 21.2685C183.95 21.2685 182.666 20.8509 181.824 20.0157C180.991 19.1806 180.574 17.9018 180.574 16.1793V13.1519C180.574 11.4033 180.991 10.1158 181.824 9.28935C182.666 8.45421 183.95 8.03663 185.677 8.03663H187.812C189.547 8.03663 190.832 8.45421 191.665 9.28935C192.498 10.1245 192.914 11.412 192.914 13.1519V16.1532C192.914 17.8844 192.498 19.1719 191.665 20.0157C190.832 20.8509 189.547 21.2685 187.812 21.2685H185.677ZM182.761 16.1793C182.761 17.3015 182.965 18.0671 183.373 18.4759C183.781 18.8761 184.549 19.0762 185.677 19.0762H187.812C188.949 19.0762 189.717 18.8718 190.116 18.4629C190.524 18.054 190.728 17.2841 190.728 16.1532V13.1519C190.728 12.0123 190.524 11.2424 190.116 10.8422C189.717 10.4333 188.949 10.2289 187.812 10.2289H185.677C184.922 10.2289 184.332 10.3159 183.907 10.4899C183.49 10.6552 183.195 10.9509 183.021 11.3772C182.848 11.7948 182.761 12.3863 182.761 13.1519V16.1793Z" fill="#010101"/>
<path d="M198.793 21.2685C198.064 21.2685 197.699 20.9031 197.699 20.1723V9.13276C197.699 8.40201 198.064 8.03663 198.793 8.03663C199.522 8.03663 199.886 8.40201 199.886 9.13276V9.56338C200.806 8.54555 202.16 8.03663 203.947 8.03663H204.676C206.412 8.03663 207.696 8.45421 208.529 9.28935C209.363 10.1245 209.779 11.412 209.779 13.1519V20.1723C209.779 20.9031 209.415 21.2685 208.686 21.2685C207.957 21.2685 207.592 20.9031 207.592 20.1723V13.1519C207.592 12.0123 207.384 11.2424 206.967 10.8422C206.56 10.4333 205.796 10.2289 204.676 10.2289H203.947C202.906 10.2289 201.999 10.3507 201.227 10.5943C200.455 10.8291 200.008 11.2032 199.886 11.7165V20.1723C199.886 20.9031 199.522 21.2685 198.793 21.2685Z" fill="#010101"/>
<path d="M65.5893 46.4119C64.1313 46.4119 63.0466 46.0552 62.335 45.3419C61.6234 44.6285 61.2676 43.5411 61.2676 42.0796C61.2676 40.6181 61.619 39.5307 62.322 38.8173C63.0336 38.104 64.1227 37.7473 65.5893 37.7473H71.0955C71.0434 36.8339 70.8048 36.2118 70.3796 35.8813C69.9543 35.542 69.2254 35.3723 68.1927 35.3723H66.6827C65.8149 35.3723 65.1684 35.4332 64.7432 35.555C64.3179 35.6681 64.0185 35.8769 63.845 36.1814C63.6888 36.5468 63.5282 36.7991 63.3633 36.9382C63.1985 37.0774 62.9511 37.147 62.6214 37.147C62.2569 37.147 61.9705 37.047 61.7622 36.8469C61.554 36.6381 61.4932 36.3641 61.58 36.0248C61.8403 35.0418 62.3827 34.3241 63.2071 33.8717C64.0402 33.4106 65.1987 33.1801 66.6827 33.1801H68.1927C69.9283 33.1801 71.2127 33.5977 72.0458 34.4328C72.8789 35.268 73.2954 36.5555 73.2954 38.2954V45.3158C73.2954 46.0465 72.9309 46.4119 72.202 46.4119C71.473 46.4119 71.1085 46.0465 71.1085 45.3158V44.7286C70.18 45.8508 68.8262 46.4119 67.0472 46.4119H65.5893ZM65.5893 44.2197H67.0472C67.6894 44.2197 68.2925 44.1631 68.8566 44.05C69.4206 43.9282 69.9023 43.7107 70.3015 43.3976C70.7093 43.0844 70.9784 42.6364 71.1085 42.0535V39.9395H65.5893C64.7301 39.9395 64.1574 40.0831 63.871 40.3702C63.5933 40.6573 63.4545 41.2271 63.4545 42.0796C63.4545 42.9409 63.5933 43.515 63.871 43.8021C64.1574 44.0805 64.7301 44.2197 65.5893 44.2197Z" fill="#010101"/>
<path d="M79.5538 46.4119C78.8248 46.4119 78.4604 46.0465 78.4604 45.3158V34.2762C78.4604 33.5455 78.8248 33.1801 79.5538 33.1801C80.2827 33.1801 80.6472 33.5455 80.6472 34.2762V35.2941C81.1592 34.5981 81.8101 34.0718 82.5998 33.7151C83.3982 33.3584 84.3094 33.1801 85.3334 33.1801C86.0624 33.1801 86.4268 33.5455 86.4268 34.2762C86.4268 35.007 86.0624 35.3723 85.3334 35.3723C83.8321 35.3723 82.6866 35.6507 81.8969 36.2075C81.1072 36.7643 80.6906 37.4994 80.6472 38.4128V45.3158C80.6472 46.0465 80.2827 46.4119 79.5538 46.4119Z" fill="#010101"/>
<path d="M93.5401 46.4119C91.8131 46.4119 90.5288 45.9943 89.687 45.1592C88.8539 44.3154 88.4374 43.0278 88.4374 41.2967V38.2693C88.4374 36.5294 88.8496 35.2419 89.674 34.4067C90.5071 33.5716 91.7958 33.1627 93.5401 33.1801H95.6749C96.9679 33.1801 97.9833 33.3976 98.7209 33.8326C99.4672 34.2675 99.9445 34.9374 100.153 35.8421C100.231 36.2075 100.166 36.4902 99.9575 36.6903C99.7579 36.8904 99.4672 36.9904 99.0854 36.9904C98.7469 36.9904 98.4996 36.9035 98.3434 36.7295C98.1872 36.5555 98.044 36.3119 97.9138 35.9987C97.7837 35.7638 97.545 35.6029 97.1979 35.5159C96.8508 35.4202 96.3431 35.3723 95.6749 35.3723H93.5401C92.4206 35.3549 91.6526 35.5507 91.236 35.9596C90.8282 36.3597 90.6242 37.1296 90.6242 38.2693V41.2967C90.6242 42.4276 90.8282 43.1975 91.236 43.6064C91.6526 44.0152 92.4206 44.2197 93.5401 44.2197H95.6749C96.3431 44.2197 96.8508 44.1762 97.1979 44.0892C97.545 43.9935 97.7837 43.8282 97.9138 43.5933C98.044 43.2627 98.1872 43.0148 98.3434 42.8495C98.5083 42.6842 98.7643 42.6016 99.1114 42.6016C99.4759 42.6016 99.7579 42.7016 99.9575 42.9017C100.166 43.1018 100.231 43.3845 100.153 43.7499C99.9445 44.6459 99.4672 45.3158 98.7209 45.7595C97.9833 46.1944 96.9679 46.4119 95.6749 46.4119H93.5401Z" fill="#010101"/>
<path d="M105.791 46.4119C105.062 46.4119 104.698 46.0465 104.698 45.3158V29.1349C104.698 28.4041 105.062 28.0387 105.791 28.0387C106.52 28.0387 106.885 28.4041 106.885 29.1349V34.7068C107.805 33.689 109.159 33.1801 110.946 33.1801H111.675C113.411 33.1801 114.695 33.5977 115.528 34.4328C116.361 35.268 116.778 36.5555 116.778 38.2954V45.3158C116.778 46.0465 116.413 46.4119 115.684 46.4119C114.955 46.4119 114.591 46.0465 114.591 45.3158V38.2954C114.591 37.1557 114.383 36.3858 113.966 35.9857C113.558 35.5768 112.795 35.3723 111.675 35.3723H110.946C109.905 35.3723 108.998 35.4941 108.226 35.7377C107.453 35.9726 107.006 36.3467 106.885 36.86V45.3158C106.885 46.0465 106.52 46.4119 105.791 46.4119Z" fill="#010101"/>
<path d="M122.664 31.04C121.84 31.04 121.428 30.6225 121.428 29.7873V29.0174C121.428 28.1997 121.84 27.7908 122.664 27.7908H123.419C124.209 27.7908 124.604 28.1997 124.604 29.0174V29.7873C124.604 30.6225 124.209 31.04 123.419 31.04H122.664ZM123.029 46.4119C122.3 46.4119 121.936 46.0465 121.936 45.3158V34.2762C121.936 33.5455 122.3 33.1801 123.029 33.1801C123.758 33.1801 124.122 33.5455 124.122 34.2762V45.3158C124.122 46.0465 123.758 46.4119 123.029 46.4119Z" fill="#010101"/>
<path d="M135.109 46.4119C133.39 46.4119 132.123 46.003 131.308 45.1853C130.492 44.3676 130.084 43.1061 130.084 41.4011V35.3723H128.808C128.079 35.3723 127.715 35.007 127.715 34.2762C127.715 33.5455 128.079 33.1801 128.808 33.1801H130.084V31.2749C130.084 30.5442 130.449 30.1788 131.177 30.1788C131.906 30.1788 132.271 30.5442 132.271 31.2749V33.1801H135.265C135.994 33.1801 136.358 33.5455 136.358 34.2762C136.358 35.007 135.994 35.3723 135.265 35.3723H132.271V41.4011C132.271 42.5059 132.47 43.254 132.87 43.6455C133.269 44.0283 134.015 44.2197 135.109 44.2197C135.447 44.2197 135.712 44.3067 135.903 44.4806C136.102 44.6546 136.202 44.933 136.202 45.3158C136.202 46.0465 135.838 46.4119 135.109 46.4119Z" fill="#010101"/>
<path d="M140.964 40.6964V41.3228C140.964 42.445 141.168 43.2105 141.576 43.6194C141.984 44.0196 142.752 44.2197 143.88 44.2197H146.015C146.9 44.2197 147.555 44.137 147.98 43.9717C148.405 43.8064 148.687 43.515 148.826 43.0974C148.922 42.7669 149.052 42.5146 149.217 42.3406C149.39 42.1666 149.651 42.0796 149.998 42.0796C150.362 42.0796 150.64 42.1753 150.831 42.3667C151.022 42.5581 151.083 42.8365 151.013 43.2018C150.822 44.2806 150.31 45.0853 149.477 45.6159C148.644 46.1466 147.49 46.4119 146.015 46.4119H143.88C142.153 46.4119 140.868 45.9943 140.027 45.1592C139.194 44.3241 138.777 43.0452 138.777 41.3228V38.2954C138.777 36.5294 139.194 35.2332 140.027 34.4067C140.868 33.5716 142.153 33.1627 143.88 33.1801H146.015C147.75 33.1801 149.035 33.5977 149.868 34.4328C150.701 35.2593 151.117 36.5468 151.117 38.2954V39.6003C151.117 40.331 150.753 40.6964 150.024 40.6964H140.964ZM143.88 35.3723C142.752 35.3549 141.984 35.5507 141.576 35.9596C141.168 36.3684 140.964 37.147 140.964 38.2954V38.5041H148.93V38.2954C148.93 37.1557 148.726 36.3858 148.319 35.9857C147.919 35.5768 147.151 35.3723 146.015 35.3723H143.88Z" fill="#010101"/>
<path d="M160.38 46.4119C158.653 46.4119 157.369 45.9943 156.527 45.1592C155.694 44.3154 155.277 43.0278 155.277 41.2967V38.2693C155.277 36.5294 155.689 35.2419 156.514 34.4067C157.347 33.5716 158.636 33.1627 160.38 33.1801H162.515C163.808 33.1801 164.823 33.3976 165.561 33.8326C166.307 34.2675 166.784 34.9374 166.993 35.8421C167.071 36.2075 167.006 36.4902 166.797 36.6903C166.598 36.8904 166.307 36.9904 165.925 36.9904C165.587 36.9904 165.339 36.9035 165.183 36.7295C165.027 36.5555 164.884 36.3119 164.754 35.9987C164.624 35.7638 164.385 35.6029 164.038 35.5159C163.691 35.4202 163.183 35.3723 162.515 35.3723H160.38C159.26 35.3549 158.492 35.5507 158.076 35.9596C157.668 36.3597 157.464 37.1296 157.464 38.2693V41.2967C157.464 42.4276 157.668 43.1975 158.076 43.6064C158.492 44.0152 159.26 44.2197 160.38 44.2197H162.515C163.183 44.2197 163.691 44.1762 164.038 44.0892C164.385 43.9935 164.624 43.8282 164.754 43.5933C164.884 43.2627 165.027 43.0148 165.183 42.8495C165.348 42.6842 165.604 42.6016 165.951 42.6016C166.316 42.6016 166.598 42.7016 166.797 42.9017C167.006 43.1018 167.071 43.3845 166.993 43.7499C166.784 44.6459 166.307 45.3158 165.561 45.7595C164.823 46.1944 163.808 46.4119 162.515 46.4119H160.38Z" fill="#010101"/>
<path d="M177.109 46.4119C175.391 46.4119 174.124 46.003 173.308 45.1853C172.492 44.3676 172.085 43.1061 172.085 41.4011V35.3723H170.809C170.08 35.3723 169.715 35.007 169.715 34.2762C169.715 33.5455 170.08 33.1801 170.809 33.1801H172.085V31.2749C172.085 30.5442 172.449 30.1788 173.178 30.1788C173.907 30.1788 174.271 30.5442 174.271 31.2749V33.1801H177.265C177.994 33.1801 178.359 33.5455 178.359 34.2762C178.359 35.007 177.994 35.3723 177.265 35.3723H174.271V41.4011C174.271 42.5059 174.471 43.254 174.87 43.6455C175.269 44.0283 176.016 44.2197 177.109 44.2197C177.448 44.2197 177.712 44.3067 177.903 44.4806C178.103 44.6546 178.203 44.933 178.203 45.3158C178.203 46.0465 177.838 46.4119 177.109 46.4119Z" fill="#010101"/>
<path d="M193.171 33.1801C193.9 33.1801 194.264 33.5455 194.264 34.2762V45.3158C194.264 46.0465 193.9 46.4119 193.171 46.4119C192.442 46.4119 192.077 46.0465 192.077 45.3158V44.8852C191.158 45.903 189.804 46.4119 188.016 46.4119H187.287C185.56 46.4119 184.276 45.9943 183.434 45.1592C182.601 44.3154 182.184 43.0278 182.184 41.2967V34.2762C182.184 33.5455 182.549 33.1801 183.278 33.1801C184.007 33.1801 184.371 33.5455 184.371 34.2762V41.2967C184.371 42.4276 184.575 43.1975 184.983 43.6064C185.4 44.0152 186.168 44.2197 187.287 44.2197H188.016C189.057 44.2197 189.964 44.0979 190.737 43.8543C191.518 43.6107 191.965 43.2366 192.077 42.7321V34.2762C192.077 33.5455 192.442 33.1801 193.171 33.1801Z" fill="#010101"/>
<path d="M200.776 46.4119C200.047 46.4119 199.682 46.0465 199.682 45.3158V34.2762C199.682 33.5455 200.047 33.1801 200.776 33.1801C201.505 33.1801 201.869 33.5455 201.869 34.2762V35.2941C202.381 34.5981 203.032 34.0718 203.822 33.7151C204.62 33.3584 205.531 33.1801 206.555 33.1801C207.284 33.1801 207.649 33.5455 207.649 34.2762C207.649 35.007 207.284 35.3723 206.555 35.3723C205.054 35.3723 203.909 35.6507 203.119 36.2075C202.329 36.7643 201.913 37.4994 201.869 38.4128V45.3158C201.869 46.0465 201.505 46.4119 200.776 46.4119Z" fill="#010101"/>
<path d="M211.846 40.6964V41.3228C211.846 42.445 212.05 43.2105 212.458 43.6194C212.866 44.0196 213.634 44.2197 214.762 44.2197H216.897C217.782 44.2197 218.437 44.137 218.862 43.9717C219.288 43.8064 219.57 43.515 219.709 43.0974C219.804 42.7669 219.934 42.5146 220.099 42.3406C220.273 42.1666 220.533 42.0796 220.88 42.0796C221.245 42.0796 221.522 42.1753 221.713 42.3667C221.904 42.5581 221.965 42.8365 221.895 43.2018C221.705 44.2806 221.193 45.0853 220.359 45.6159C219.526 46.1466 218.372 46.4119 216.897 46.4119H214.762C213.035 46.4119 211.751 45.9943 210.909 45.1592C210.076 44.3241 209.659 43.0452 209.659 41.3228V38.2954C209.659 36.5294 210.076 35.2332 210.909 34.4067C211.751 33.5716 213.035 33.1627 214.762 33.1801H216.897C218.632 33.1801 219.917 33.5977 220.75 34.4328C221.583 35.2593 222 36.5468 222 38.2954V39.6003C222 40.331 221.635 40.6964 220.906 40.6964H211.846ZM214.762 35.3723C213.634 35.3549 212.866 35.5507 212.458 35.9596C212.05 36.3684 211.846 37.147 211.846 38.2954V38.5041H219.813V38.2954C219.813 37.1557 219.609 36.3858 219.201 35.9857C218.802 35.5768 218.034 35.3723 216.897 35.3723H214.762Z" fill="#010101"/>
<path d="M234.138 46.3075C233.444 46.0378 233.235 45.5594 233.513 44.8721L239.709 29.5785C239.969 29.0044 240.377 28.7173 240.933 28.7173H240.985C241.549 28.7434 241.931 29.0305 242.13 29.5785L248.431 44.8721C248.708 45.5594 248.509 46.0378 247.832 46.3075C247.146 46.5772 246.669 46.3771 246.4 45.7073L244.994 42.2884H236.884L235.544 45.7073C235.275 46.3858 234.806 46.5859 234.138 46.3075ZM237.744 40.0961H244.096L240.855 32.1884L237.744 40.0961Z" fill="#010101"/>
<path d="M253.404 46.4119C253.03 46.4119 252.753 46.3249 252.57 46.1509C252.397 45.9683 252.31 45.6899 252.31 45.3158V29.8395C252.31 29.4567 252.397 29.1784 252.57 29.0044C252.753 28.8304 253.03 28.7434 253.404 28.7434C253.785 28.7434 254.063 28.8304 254.237 29.0044C254.41 29.1784 254.497 29.4567 254.497 29.8395V45.3158C254.497 45.6899 254.41 45.9683 254.237 46.1509C254.063 46.3249 253.785 46.4119 253.404 46.4119Z" fill="#010101"/>
<path d="M38.8672 0C44.39 0 48.8672 4.47715 48.8672 10V38.8721C48.8672 44.3949 44.39 48.873 38.8672 48.873H10C4.47715 48.873 0 44.3949 0 38.8721V10C8.91858e-08 4.47715 4.47715 0 10 0H38.8672ZM31.4756 15.1748C28.5082 9.6697 21.6465 7.61533 16.1494 10.5869C14.51 11.4733 13.8982 13.5232 14.7832 15.165L20.0957 25.0195C20.5632 25.8869 20.2401 26.9703 19.374 27.4385L19.1895 27.5381C18.4253 27.9511 17.4712 27.6655 17.0586 26.9004C16.2806 25.4571 14.4813 24.9181 13.04 25.6973C8.51052 28.146 6.82077 33.8085 9.26562 38.3447L10.0205 39.7441C10.9311 41.4334 13.0368 42.0643 14.7236 41.1523L18.8271 38.9336C20.8444 37.843 21.5975 35.3211 20.5088 33.3008C20.0809 32.5071 20.3764 31.5164 21.1689 31.0879L21.3018 31.0156C22.1679 30.5473 23.2492 30.8709 23.7168 31.7383L27.1592 38.124C28.2483 40.1439 30.766 40.8979 32.7832 39.8076L38.8213 36.543C40.6058 35.578 41.272 33.3469 40.3086 31.5596L31.4756 15.1748Z" fill="#E6FF2B"/>
</svg>
