<svg width="194" height="292" viewBox="110 70 194 292" fill="none" xmlns="http://www.w3.org/2000/svg">
<path d="M213.68 209.287C209.231 206.642 202.688 206.828 198.07 209.73L115.353 261.704M213.68 209.287V245.474L278.115 283.781M213.68 209.287L299.244 260.155C301.378 261.424 302.437 263.279 302.438 265.179V301.366C302.438 303.371 301.259 305.426 298.921 306.895L220.179 356.371C215.985 359.006 210.732 360.148 205.759 359.759C202.518 359.505 199.397 358.601 196.764 357.036L115.029 308.444C113.962 307.81 113.164 307.029 112.632 306.169C112.101 305.309 111.836 304.37 111.836 303.421V267.233C111.836 265.228 113.015 263.173 115.353 261.704M115.353 261.704V272.449M198.07 245.917C198.436 245.687 198.813 245.475 199.201 245.279" stroke="#1B1B1B" stroke-width="0.707557"/>
<path d="M198.07 209.73C202.688 206.828 209.232 206.642 213.68 209.287L299.244 260.155C303.631 262.763 303.474 267.847 298.92 270.708L220.179 320.184C213.252 324.537 203.436 324.815 196.764 320.849L115.029 272.257C110.643 269.649 110.799 264.565 115.353 261.704L198.07 209.73Z" fill="#F6F6F6" stroke="#1B1B1B" stroke-width="0.707557"/>
<path d="M279.39 205.768C279.39 204.241 278.648 202.717 277.184 201.887L208.868 163.178L138.015 201.857C136.512 202.678 135.752 204.224 135.752 205.772V237.325C135.752 238.795 136.437 240.266 137.823 241.122L203.07 281.427C204.455 282.283 205.97 282.8 207.513 282.981C208.952 283.15 210.415 283.026 211.818 282.609C212.786 282.321 213.726 281.894 214.61 281.328L277.38 241.082C278.726 240.219 279.391 238.769 279.391 237.321L279.39 205.768ZM279.39 205.768V205.87C279.391 205.836 279.39 205.801 279.39 205.768ZM158.402 222.281L208.868 194.731" stroke="#1B1B1B" stroke-width="0.707557"/>
<path d="M208.868 163.178L277.184 201.887C280.037 203.503 280.145 207.755 277.379 209.529L214.609 249.775C211.076 252.041 206.638 252.079 203.07 249.874L137.823 209.568C134.977 207.811 135.086 203.456 138.015 201.857L208.868 163.178Z" fill="#F6F6F6" stroke="#1B1B1B" stroke-width="0.707557"/>
<path d="M162.804 143.658L206.018 114.58L251.34 143.734C252.183 144.276 252.606 145.19 252.606 146.104M162.804 143.658C161.989 144.207 161.582 145.103 161.582 145.998V176.618C161.582 177.532 162.006 178.446 162.849 178.989L203.889 205.388C204.831 205.994 205.862 206.377 206.917 206.538C207.328 206.601 207.742 206.631 208.156 206.626C209.634 206.611 211.108 206.167 212.4 205.297L251.386 179.065C252.202 178.516 252.608 177.62 252.608 176.724L252.606 146.104M162.804 143.658L162.804 148.339M252.606 146.104V146.185C252.607 146.158 252.606 146.131 252.606 146.104Z" stroke="#1B1B1B" stroke-width="0.707557"/>
<path d="M206.018 114.58L251.34 143.734C253.01 144.808 253.034 147.336 251.385 148.445L212.4 174.678C209.815 176.417 206.506 176.452 203.889 174.768L162.849 148.369C161.18 147.295 161.155 144.767 162.804 143.658L206.018 114.58Z" fill="#F6F6F6" stroke="#1B1B1B" stroke-width="0.707557"/>
<path fill-rule="evenodd" clip-rule="evenodd" d="M205.899 70.9764C206.336 70.6715 206.904 70.6637 207.348 70.9565L229.444 85.5127C229.858 85.7851 230.067 86.2376 230.067 86.6904V117.31L230.066 117.264V117.275L230.067 117.31C230.067 117.751 229.87 118.192 229.474 118.468L210.146 131.954C209.654 132.297 209.107 132.515 208.546 132.607C208.295 132.648 208.04 132.664 207.787 132.654C207.095 132.629 206.408 132.416 205.798 132.014L185.163 118.421C184.749 118.148 184.541 117.696 184.541 117.243V86.6231C184.541 86.1828 184.738 85.742 185.133 85.4659L205.899 70.9764L205.898 101.457C205.898 101.457 205.898 101.458 205.898 101.457L205.899 70.9764Z" fill="#E4E4E4"/>
<path d="M205.899 70.9764C206.336 70.6715 206.904 70.6637 207.348 70.9565L229.444 85.5127M205.899 70.9764L185.133 85.4659C184.738 85.742 184.541 86.1828 184.541 86.6231V117.243C184.541 117.696 184.749 118.148 185.163 118.421L205.798 132.014C206.408 132.416 207.095 132.629 207.787 132.654C208.04 132.664 208.295 132.648 208.546 132.607C209.107 132.515 209.654 132.297 210.146 131.954L229.474 118.468C229.87 118.192 230.067 117.751 230.067 117.31M205.899 70.9764L205.898 101.457M229.444 85.5127V87.8686M229.444 85.5127C229.858 85.7851 230.067 86.2376 230.067 86.6904V117.31M230.067 117.31L230.066 117.264V117.275L230.067 117.31ZM205.898 101.457C205.898 101.457 205.898 101.458 205.898 101.457ZM207.347 101.576C207.268 101.523 207.184 101.481 207.098 101.447" stroke="#1B1B1B" stroke-width="0.707557"/>
<path d="M205.9 70.9764C206.337 70.6715 206.905 70.6637 207.35 70.9565L229.447 85.5128C230.263 86.0503 230.278 87.2882 229.476 87.8479L210.147 101.334C208.837 102.249 207.134 102.272 205.8 101.394L185.165 87.8006C184.348 87.2631 184.333 86.0252 185.135 85.4655L205.9 70.9764Z" fill="#F6F6F6" stroke="#1B1B1B" stroke-width="0.707557"/>
</svg>
